<svg xmlns="http://www.w3.org/2000/svg" viewBox="0 0 400 400"><defs><style>.cls-1{fill:#095ff0;}.cls-2{fill:none;}</style></defs><g id="Layer_2" data-name="Layer 2"><g id="Layer_1-2" data-name="Layer 1"><path class="cls-1" d="M0,197c0-11.71.05-23.42,0-35.12a10,10,0,0,1,8.79-9.95,8.68,8.68,0,0,1,1,0H55a8.12,8.12,0,0,1,8.22,6.57,7.65,7.65,0,0,1-2.73,7.92c-2.71,2.28-5.56,4.38-8.36,6.55q-7.23,5.61-14.48,11.21a2,2,0,0,0-.9,2.24,2,2,0,0,0,1.86,1.53c.31,0,.63,0,.95,0,5.4,0,10.81,0,16.21,0A8.22,8.22,0,0,1,60,202.9q-13.55,10.53-27.12,21-9.63,7.46-19.26,14.93a8.07,8.07,0,0,1-8.26,1.31,8.17,8.17,0,0,1-5.26-6.75,7.36,7.36,0,0,1,0-1.15Z"></path><path class="cls-1" d="M277.54,196.39V171.21c0-.91,0-.91.88-.91,6.7,0,13.4-.06,20.1,0,3.91.05,7.8.45,11.39,2.2a11,11,0,0,1,6.56,9.88,12.87,12.87,0,0,1-.52,4.82,9,9,0,0,1-5.67,5.57l-.38.14a1.27,1.27,0,0,0-.93,1.83c.07.2.43.33.68.43a40.28,40.28,0,0,1,4.46,1.79,9.78,9.78,0,0,1,5.05,7.85,19,19,0,0,1-.35,7.08,12.65,12.65,0,0,1-7.67,8.79,21.43,21.43,0,0,1-7.71,1.75c-3.22.13-6.44.14-9.67.15-5.13,0-10.26,0-15.39,0-.66,0-.85-.19-.85-.84Q277.55,209.08,277.54,196.39Zm10.55,10.55v6.8c0,.94,0,.95.91.95,3.27,0,6.54,0,9.8,0a18.68,18.68,0,0,0,3.17-.28,7.38,7.38,0,0,0,4.68-2.54,7.82,7.82,0,0,0,1.46-6.09,6.51,6.51,0,0,0-4-5.53,12.73,12.73,0,0,0-5.16-1c-3.34-.05-6.67,0-10,0-.67,0-.84.24-.84.87C288.1,202.36,288.09,204.65,288.09,206.94Zm0-22.13c0,1.88,0,3.76,0,5.65,0,.94,0,.94,1,.94,2,0,3.95,0,5.92,0a46.92,46.92,0,0,0,4.75-.16c3.91-.46,6.06-3,5.88-6.89-.11-2.56-1.17-4.52-3.95-5.42a14.57,14.57,0,0,0-4-.68c-2.95-.1-5.9,0-8.86,0-.56,0-.75.19-.74.75C288.1,180.91,288.09,182.86,288.09,184.81Z"></path><path class="cls-1" d="M221.4,195.78V169.84c0-.9,0-.9.88-.9,3,0,5.95,0,8.93,0,.68,0,.89.17.89.87,0,5.49,0,11,0,16.47,0,.36-.22.87.37,1a1.4,1.4,0,0,0,1.66-.5c2.11-3.65,5.37-5.24,9.48-5.34a15,15,0,0,1,6.51,1.11c3.75,1.66,5.76,4.72,6.75,8.54a23.65,23.65,0,0,1,.7,6q0,12.35,0,24.71c0,.6-.13.83-.78.82q-4.63,0-9.27,0c-.61,0-.76-.2-.76-.78q0-12.12,0-24.23a9,9,0,0,0-1.47-5.15,5.18,5.18,0,0,0-4.14-2.27c-5.35-.38-7.86,3.46-8.64,7.16a19.73,19.73,0,0,0-.4,3.91c0,6.8,0,13.61,0,20.42,0,.93,0,.93-.93.93-3,0-6,0-8.93,0-.66,0-.84-.19-.84-.84Q221.41,208.78,221.4,195.78Z"></path><path class="cls-1" d="M179.05,209.91c-1.1,5.56-3.89,9.66-9,12a20.46,20.46,0,0,1-7.64,1.69,23.21,23.21,0,0,1-9-1.19c-5.57-2-8.93-6-10.62-11.54a30,30,0,0,1-1.07-10.49,23.62,23.62,0,0,1,2.49-9.8,16.13,16.13,0,0,1,11-8.47,24.09,24.09,0,0,1,11.51,0c6.09,1.49,9.8,5.47,11.63,11.34a34.88,34.88,0,0,1,1.26,11.09c0,.38-.17.53-.54.51a4.87,4.87,0,0,0-.54,0H153.09c-1,0-1,0-.9.92a13.77,13.77,0,0,0,2.47,7,7.71,7.71,0,0,0,7.21,3.13,7.33,7.33,0,0,0,6.62-5.25,1.21,1.21,0,0,1,1.39-1c2.76.05,5.54,0,8.31,0Zm-18.43-11.57c2.59,0,5.18,0,7.76,0,.55,0,.76-.18.68-.72s-.15-1.34-.29-2a9.3,9.3,0,0,0-2.75-5.34,8.44,8.44,0,0,0-11.49,1.14,12.69,12.69,0,0,0-2.35,6.15c-.09.59.13.79.74.78C155.48,198.32,158.05,198.34,160.62,198.34Z"></path><path class="cls-1" d="M359.23,202.56c0,6.4,0,12.79,0,19.19,0,.71-.21.88-.89.87-2.68,0-5.36,0-8,0-.64,0-.81-.2-.8-.81,0-1.52,0-3.05,0-4.57,0-.51-.18-.61-.67-.66a1.29,1.29,0,0,0-1.5,1c-1.46,3.47-4.27,5.24-7.87,5.85a16.25,16.25,0,0,1-7.92-.49c-4.24-1.4-6.66-4.48-7.78-8.66a18.52,18.52,0,0,1-.7-4.67c-.11-8.85-.11-17.7-.16-26.54,0-.48.16-.63.63-.63,3.18,0,6.36,0,9.55,0,.62,0,.62.33.62.78,0,7.65,0,15.29,0,22.94a14.94,14.94,0,0,0,.7,4.88c1.06,3,3.57,4.22,6.61,3.88,4-.45,6.35-3.59,7.1-7.55a18.11,18.11,0,0,0,.28-3.37c0-6.88,0-13.75,0-20.63,0-.91,0-.91.94-.91,3,0,6,0,9,0,.72,0,.87.22.87.89C359.22,189.71,359.23,196.13,359.23,202.56Z"></path><path class="cls-1" d="M79.51,196.45V171.2c0-.9,0-.9.89-.9h32.71c.9,0,.9,0,.9.89,0,2.34,0,4.68,0,7,0,.65-.16.85-.83.85-7.2,0-14.4,0-21.61,0-1,0-1,0-1,1,0,3.45,0,6.9,0,10.35,0,.6.17.77.77.77,5.39,0,10.77,0,16.15,0,.65,0,.87.18.86.84q-.06,3.23,0,6.47c0,.59-.16.77-.77.77-5.36,0-10.72,0-16.08,0-.9,0-.91,0-.91.88v21.65c0,.89,0,.9-.89.9-3.14,0-6.27,0-9.41,0-.6,0-.77-.18-.77-.77Q79.52,209.15,79.51,196.45Z"></path><path class="cls-1" d="M215.86,193.55a5,5,0,0,1-.57,0c-2.82,0-5.63,0-8.45,0-.5,0-.73-.15-.84-.64-.7-2.91-2.89-4.16-5.54-4.39a8.61,8.61,0,0,0-3.83.39,3.44,3.44,0,0,0-2.44,2.76,3.39,3.39,0,0,0,1.41,3.59,19,19,0,0,0,3.8,1.91c3.41,1.25,6.88,2.31,10.27,3.58a13.11,13.11,0,0,1,6,4.26,9.3,9.3,0,0,1,1.87,5.16,11.1,11.1,0,0,1-3,9,13.5,13.5,0,0,1-7.06,3.73,26.93,26.93,0,0,1-16.15-1A13.72,13.72,0,0,1,182.45,211a10.3,10.3,0,0,1-.09-1.05c.24,0,.44,0,.63,0,3,0,5.91,0,8.86,0,.45,0,.69.1.83.58.9,3.09,3.12,4.74,6.15,5.4a11.83,11.83,0,0,0,5.79-.13c2.31-.64,3.5-2.6,2.85-4.7a3.35,3.35,0,0,0-1.62-2,27.47,27.47,0,0,0-3.56-1.67c-3.62-1.36-7.3-2.57-10.9-4a12.35,12.35,0,0,1-5.2-3.85,9.68,9.68,0,0,1-1.93-7.36c.6-5.34,3.9-8.38,8.82-9.79a23,23,0,0,1,14.89.48c4.77,1.84,7.38,5.45,7.94,10.53C215.92,193.41,215.89,193.45,215.86,193.55Z"></path><path class="cls-1" d="M367.93,209.91c1.45,0,2.91,0,4.36,0,.45,0,.7.11.82.57.89,3.38,3.89,5.23,7.28,5.59a11.92,11.92,0,0,0,4.9-.41,3.55,3.55,0,0,0,2.67-2.72,3.4,3.4,0,0,0-1.63-3.85,21.27,21.27,0,0,0-3.61-1.71c-3.3-1.22-6.65-2.3-9.93-3.55a15,15,0,0,1-5.61-3.64,9.14,9.14,0,0,1-2.52-5.8c-.47-7,4-10.67,8.79-12a23.9,23.9,0,0,1,14.06.15,12.14,12.14,0,0,1,8.78,10.27c.11.71,0,.82-.73.82-2.77,0-5.54,0-8.31,0-.47,0-.7-.1-.83-.63-.73-3-2.95-4.17-5.6-4.4a8.46,8.46,0,0,0-3.76.39,3.47,3.47,0,0,0-2.49,3,3.67,3.67,0,0,0,1.47,3.4,17.44,17.44,0,0,0,5.37,2.41c3.1,1.08,6.23,2.09,9.28,3.3a12,12,0,0,1,5.72,4.46,11.38,11.38,0,0,1-3.33,15.17,18.09,18.09,0,0,1-8,2.69,29.85,29.85,0,0,1-4,.26,24.14,24.14,0,0,1-10.54-2.24,13.9,13.9,0,0,1-7.78-11c-.08-.5.17-.57.58-.56Z"></path><path class="cls-1" d="M115.36,202.47c0-6.4,0-12.8,0-19.2,0-.7.2-.88.88-.87,2.75,0,5.5,0,8.25,0,.57,0,.74.19.73.75,0,1.95,0,3.9,0,5.85,0,.38-.13.84.53.88,1,.06,1.19,0,1.36-.67a8.52,8.52,0,0,1,4.14-5.73,11.22,11.22,0,0,1,4.8-1.34c1.13-.07,2.26-.08,3.4-.14.47,0,.63.15.63.63q0,4.22,0,8.44c0,.54-.23.61-.7.63a40,40,0,0,0-5.81.4c-4.12.82-6.47,3.43-7.1,7.57a23.79,23.79,0,0,0-.29,3.58c0,6.15,0,12.3,0,18.45,0,.9,0,.91-.88.91-3,0-6,0-9.06,0-.72,0-.86-.22-.86-.89C115.37,215.31,115.36,208.89,115.36,202.47Z"></path><rect class="cls-2" width="400" height="400"></rect></g></g></svg>