<svg xmlns="http://www.w3.org/2000/svg" viewBox="0 0 400.83 400"><defs><style>.cls-1{fill:#4cb21e;}.cls-2{fill:none;}</style></defs><g id="Layer_2" data-name="Layer 2"><g id="Layer_1-2" data-name="Layer 1"><path class="cls-1" d="M0,201.32c.18-1.44.35-2.89.55-4.33a39.68,39.68,0,0,1,9.71-21.18,2.65,2.65,0,0,1,.36-.26,22.77,22.77,0,0,1,2.9,7.36c1,4.4.89,8.88,1,13.36s.41,8.69.62,13c0,.26,0,.52,0,1A30.58,30.58,0,0,0,0,204.18Z"></path><path class="cls-1" d="M41.71,162l2.67.47c0,.09.09.21.06.31-2,6.1-3.89,12.22-5.94,18.29a33.29,33.29,0,0,1-5.41,10.27c-.19.24-.41.45-.9,1-1.28-3.39-2.65-6.5-3.65-9.73-2.1-6.74-1.15-13,3.42-18.56a3.67,3.67,0,0,1,2.8-1.46c1.22-.07,2.45-.19,3.67-.31a5,5,0,0,0,.9-.25Z"></path><path class="cls-1" d="M26.69,164.59c-.82,2.27-1.83,4.48-2.41,6.79a22.82,22.82,0,0,0,1.35,14.22c2.21,5.42,4.79,10.7,7.28,16,2.13,4.56,4.23,9.12,5.28,14.1a40.39,40.39,0,0,1,.32,10.3c-.14,2.92-.25,5.86-.46,8.78-.17,2.33-.48,4.64-.73,7-.08.7-.4,1.09-1.18.95-1.48-.28-3-.45-4.43-.82a2.17,2.17,0,0,1-1.32-1.12c-1.73-4.63-3.32-9.32-5.07-13.95-1-2.66-2.1-5.3-3.36-7.85a31.22,31.22,0,0,1-3.28-12.07c-.27-4.87-.38-9.75-.47-14.62-.14-6.65-1-13.12-4.52-19a1.21,1.21,0,0,1,.28-1.14A38.44,38.44,0,0,1,26.69,164.59Z"></path><path class="cls-1" d="M41.19,243.13c.3-5,.75-9.75.81-14.45a56.18,56.18,0,0,1,11.22-33.35,34.11,34.11,0,0,0,6.69-18.16c.2-2.76.31-5.54.45-8.31,0-.42,0-.84,0-1.27l.3-.25L68.25,173a47.7,47.7,0,0,0-2.58,6.51,60.59,60.59,0,0,0-1.59,9.81c-.32,4.43-.14,8.89-.32,13.33a44.28,44.28,0,0,1-3.93,17.23c-2.39,5.14-3.9,10.69-5.78,16.07-.5,1.42-1,2.83-1.46,4.27a1.72,1.72,0,0,1-1.5,1.31Z"></path><path class="cls-1" d="M41.07,210.7c-2.17-4.71-4.39-9.48-6.57-14.26a1.18,1.18,0,0,1,0-1c4.46-4.87,6.83-10.81,8.77-17,1.49-4.72,3-9.42,4.51-14.14.33-1.05.81-1.5,2-1.08,1.9.68,3.86,1.18,5.75,1.88a1.77,1.77,0,0,1,1,1.24c.14,6.87.14,13.75-2.69,20.2a44.07,44.07,0,0,1-4,7A65.87,65.87,0,0,0,41.07,210.7Z"></path><path class="cls-1" d="M.69,208c1.6.42,3.16.77,4.67,1.26a20.82,20.82,0,0,1,13.22,11.39c2.81,6.26,5,12.78,7.59,19.34C15.46,238.51.6,219.78.69,208Z"></path><path class="cls-1" d="M66.82,210c1-6,.58-12,.75-18,.14-5,.6-10,2.78-14.58l.72-1.41c1.18,1.61,2.31,3,3.28,4.51A39.32,39.32,0,0,1,80.77,200a31,31,0,0,1,.13,3.2,1.4,1.4,0,0,1-.76,1,29.56,29.56,0,0,0-13,5.73S67,210,66.82,210Z"></path><path class="cls-1" d="M56.86,239.43c.82-2.64,1.58-5.08,2.33-7.53,1.46-4.73,3-9.45,5.65-13.69,3.61-5.7,8.87-8.87,15.61-10.13a38.25,38.25,0,0,1-5.12,14.84A40.42,40.42,0,0,1,56.86,239.43Z"></path><path d="M115.15,213.12a17.7,17.7,0,0,0,.1-1.78c-.21-10.49-.41-21-.7-31.47,0-1.48.23-2.17,1.88-2.07,2,.12,4.11,0,6.09,0v52.74c-2.3,0-4.63.1-6.94-.08-.53,0-1.21-1-1.46-1.63-2.43-6.38-4.74-12.81-7.16-19.19-1.69-4.44-3.5-8.84-5.59-13.18v34.07c-2.29,0-4.62.07-6.94-.07-.36,0-.94-1-.94-1.55.13-11.87.4-23.73.48-35.61,0-4.55-.27-9.1-.53-13.65-.08-1.32.21-1.84,1.63-1.89,6.38-.25,6.34-.27,8.56,5.77,3.51,9.52,7.08,19,10.62,28.51.15.38.32.75.48,1.12Z"></path><path d="M256.85,230.57c-3,0-5.58.1-8.19-.08a2.52,2.52,0,0,1-1.65-1.6c-1.72-6.18-3.38-12.38-4.89-18.61-.37-1.52-.94-2-2.47-2-4.17,0-4.15,0-4.13,4.17,0,5.93,0,11.86,0,17.95h-7.47V178a3.67,3.67,0,0,1,.91-.16c4.21,0,8.43-.1,12.64,0,6.34.18,10.56,3.41,12.13,9.57,1.45,5.65,1.37,11.23-2.27,16.24a4,4,0,0,1-1.27,1.34c-2.16,1.06-2.16,2.61-1.38,4.59,2.48,6.28,4.87,12.6,7.29,18.91C256.32,229.07,256.52,229.64,256.85,230.57Zm-21-37.48h-.31c0,1.73,0,3.45,0,5.17.08,5.09-1.18,4.58,4.8,4.43,3.41-.08,5.3-1.55,5.68-4.83a40.13,40.13,0,0,0,0-9.23c-.46-3.67-2.55-5.13-6.31-5.17-.68,0-1.38.06-2.06,0-1.34-.12-1.87.45-1.84,1.78C235.86,187.86,235.83,190.48,235.83,193.09Z"></path><path d="M347.24,204c.3-6.24,1-12.29,3.74-18s7-9.18,13.55-9.16,10.84,3.67,13.45,9.35c3.36,7.29,3.73,15.07,3.14,22.92a35.46,35.46,0,0,1-3.49,13.76c-4.39,8.6-14.54,11.36-21.79,5.74-4.26-3.3-6.21-8.07-7.18-13.17C347.94,211.73,347.69,207.86,347.24,204Zm7.59.17.76.1a53.59,53.59,0,0,0,0,5.38c.41,4.27,1,8.53,3.26,12.3,2.82,4.65,7.94,4.82,10.86.23a18.37,18.37,0,0,0,2.35-5.7,53.75,53.75,0,0,0,.17-23.61,22.73,22.73,0,0,0-3-7.38c-2.23-3.47-6.4-3.63-9.16-.53a10.58,10.58,0,0,0-2.51,4.43C356.45,194.31,355.71,199.28,354.83,204.21Z"></path><path d="M130.45,189.06c0-3.05,0-5.6.05-8.15a1.8,1.8,0,0,1,.92-1.33,28.3,28.3,0,0,1,12.64-2.68c6.9.36,11,3.69,12.08,10.5a82.15,82.15,0,0,1,.55,11.55c.19,9.8.27,19.6.5,29.4,0,1.7-.33,2.37-2.11,2.25-2-.14-4.1,0-6.21,0l-.24-2.67a8.81,8.81,0,0,0-1.08.64c-6.89,5.41-15.07,3.29-18.41-4.79-2.85-6.89-1.17-16,3.94-20.76,3.06-2.88,6.92-4.18,10.87-5.28.6-.16,1.21-.29,1.81-.44,3.68-.93,3.76-.94,3.38-4.68a32.09,32.09,0,0,0-1.18-6.07c-.94-3.06-2.89-4.45-6-3.63-2.8.74-5.39,2.29-8,3.63A29.19,29.19,0,0,0,130.45,189.06Zm18.77,22.13h.17c0-2.41.05-4.82,0-7.23,0-.49-.69-1.42-.93-1.38-4.27.71-8.64,1.65-10.83,5.86a15.58,15.58,0,0,0-.23,14,4.56,4.56,0,0,0,6.92,2.1c2.89-1.87,5.29-4.19,5-8.15C149.11,214.65,149.22,212.91,149.22,211.19Z"></path><path d="M212.51,177.91h7.87c0,3.1,0,6.11,0,9.11.09,13.74.15,27.47.33,41.2,0,1.76-.21,2.54-2.16,2.38s-4,0-6.08,0v-3.85c-.67.47-1.07.78-1.49,1a28.42,28.42,0,0,1-4.92,3c-6.19,2.31-11.39-.34-13.24-6.69a22.73,22.73,0,0,1-.9-5.9c-.23-13-.35-26.09-.5-39.14,0-.27,0-.55.07-1h7.73c0,3.36,0,6.7,0,10,0,9.93.06,19.87.18,29.81a14.47,14.47,0,0,0,.83,4.45c1,2.95,3.87,4.07,6.51,2.41,3.72-2.34,6.51-5.16,6.33-10.25-.4-11.52-.4-23.05-.56-34.57C212.5,179.28,212.51,178.67,212.51,177.91Z"></path><path d="M289.22,205.66H271.16c-4.57,0-4.68,0-4,4.57a48.77,48.77,0,0,0,2,9.49c2,5.8,8,7.72,13.31,4.56,1.57-.94,3-2.15,4.81-3.48,0,3.08,0,5.8-.06,8.52,0,.37-.75,1-1.2,1-3.69.43-7.42,1.18-11.09,1-7.09-.33-11.14-4.95-13.57-11.1-3.18-8.07-3.11-16.48-2-24.91.63-4.77,1.9-9.34,4.9-13.25,6.1-7.94,17.33-6.81,21.77,2.17,2.35,4.75,2.9,9.9,3.22,15.08C289.32,201.36,289.22,203.35,289.22,205.66Zm-7.7-6c-.43-3.51-.72-6.8-1.3-10a13.58,13.58,0,0,0-1.76-4.59c-1.94-3.21-5.85-3.47-7.88-.5-3.08,4.51-3.22,9.77-3.68,15.12Z"></path><path d="M302.73,211.07c0,5.64,0,10.93,0,16.23a8.65,8.65,0,0,0,.11,1.44c.2,1.31-.23,1.91-1.66,1.85-2.19-.09-4.39,0-6.44,0v-53c5.48.24,11.19.19,16.83.82,3.86.44,6.6,3.17,8.11,6.73a21.08,21.08,0,0,1-.79,19.15c-2.48,4.52-6.48,6.62-11.55,6.76C305.77,211.11,304.18,211.07,302.73,211.07Zm-.26-5.65h2.87c5,0,7-1.51,7.67-6.41a32.42,32.42,0,0,0,.18-8.63c-.83-6.15-3.35-7.82-10.72-6.51Z"></path><path d="M187.37,184.34c-2.72-.29-5.11-.53-7.5-.8-1.61-.19-2.18.47-2.16,2.1q.16,21.53.24,43v1.74h-8v-47l-9.55.84c0-1.84-.06-3.69.06-5.52,0-.34.8-.9,1.23-.9,8.07,0,16.14,0,24.21,0,1,0,1.52.37,1.49,1.45C187.34,180.91,187.37,182.55,187.37,184.34Z"></path><path d="M334.52,230.44c-.82.05-1.42.11-2,.11h-5.87V178h7.82v4.57c4.29-2.81,8.2-5.69,13.48-5.59v7.94c-2.63.46-5.27.83-7.87,1.42a12.86,12.86,0,0,0-3.38,1.49,4.89,4.89,0,0,0-2.66,4.73c.24,12,.36,24,.51,36C334.53,229.08,334.52,229.62,334.52,230.44Z"></path><path d="M393.08,162.47c1.49,9.73-4.82,14-14.8,14.61C377.08,170.25,380,163.66,393.08,162.47Z"></path><path d="M392.74,242.66a6.84,6.84,0,0,1-6.91-6.95,7,7,0,1,1,14-.05A6.9,6.9,0,0,1,392.74,242.66Zm.05-1.12a5.89,5.89,0,1,0,.08-11.77,5.89,5.89,0,0,0-.08,11.77Z"></path><path d="M390.24,232c1.93.24,4.18-.89,5.26,1.39.34.71-.51,2-1.29,2.9l1.7,2.75-.46.49-3.9-3.79-.65,3.67-.66,0Zm1.65.68-.64.44c.1.67,0,1.79.32,1.92a4.1,4.1,0,0,0,2.32-.07c.22,0,.46-1.11.37-1.16A21.48,21.48,0,0,0,391.89,232.66Z"></path><rect class="cls-2" x="0.83" width="400" height="400"></rect></g></g></svg>