<svg xmlns="http://www.w3.org/2000/svg" xmlns:xlink="http://www.w3.org/1999/xlink" viewBox="0 0 400.64 400"><defs><style>.cls-1{fill:#fff;}.cls-2,.cls-3,.cls-4,.cls-5{fill-rule:evenodd;}.cls-3{fill:#009ee0;}.cls-4{fill:#1b1918;}.cls-5,.cls-9{fill:#e30016;}.cls-6{mask:url(#mask);}.cls-10,.cls-7{fill:none;}.cls-7,.cls-9{stroke:#e30016;}.cls-7{stroke-width:0.8px;}.cls-8{mask:url(#mask-2);}.cls-9{stroke-width:0.4px;}</style><mask id="mask" x="-0.33" y="281.5" width="109.2" height="26.8" maskUnits="userSpaceOnUse"><g id="path-7-outside-1_5_531" data-name="path-7-outside-1 5 531"><rect class="cls-1" x="-0.33" y="281.5" width="109.2" height="26.8"></rect><path class="cls-2" d="M7.22,300a33,33,0,0,0,.19,3.93,21.42,21.42,0,0,0,.68,3.27H2.59a20.41,20.41,0,0,0,.67-3.23,36.26,36.26,0,0,0,.18-4V285.29l-2.57-3H6.71a3,3,0,0,0,.3,1.12,5.11,5.11,0,0,0,.75,1.18l7.83,9.68h0l7.15-9.11a8.28,8.28,0,0,0,1-1.57,3,3,0,0,0,.4-1.3H29.5a11.2,11.2,0,0,0-1.6,3.27,14.65,14.65,0,0,0-.45,3.93V300a35.28,35.28,0,0,0,.19,3.93,21.42,21.42,0,0,0,.68,3.27h-5.5a20.41,20.41,0,0,0,.67-3.23,35.94,35.94,0,0,0,.19-4V289.25h0L15.46,300,7.22,289.81Zm32.33,7.58a7.72,7.72,0,0,1-5.85-2.39A8.51,8.51,0,0,1,31.41,299a11.13,11.13,0,0,1,2-6.78,6,6,0,0,1,5-2.7h0a5.43,5.43,0,0,1,4.54,2,9.29,9.29,0,0,1,1.6,5.84V299H35.06a8.13,8.13,0,0,0,1.37,3.9,4.48,4.48,0,0,0,3.84,2,8.25,8.25,0,0,0,2.15-.29,7.42,7.42,0,0,0,1.93-.81L43,307.05a13.47,13.47,0,0,1-1.81.39A11,11,0,0,1,39.55,307.54Zm2.24-11a6.17,6.17,0,0,0-.83-3.44A2.71,2.71,0,0,0,38.57,292h0a2.94,2.94,0,0,0-2.64,1.46,6.8,6.8,0,0,0-.91,3.17Zm12.42,11a6.55,6.55,0,0,1-5.05-2,7.62,7.62,0,0,1-1.87-5.41,11.25,11.25,0,0,1,2.58-7.57,8.13,8.13,0,0,1,6.47-3,6.52,6.52,0,0,1,1.95.28v-1.34a21.27,21.27,0,0,0-.16-2.8,11.3,11.3,0,0,0-.58-2.25l2.42-.49,2.43-.51a10,10,0,0,0-.53,2.49c-.09,1-.14,2.32-.14,4.06v13.14a20.94,20.94,0,0,0,.17,3.12,6.27,6.27,0,0,0,.58,1.92H58.29v-2.35l-2,2.32A5.74,5.74,0,0,1,54.21,307.54ZM55.16,292a3.65,3.65,0,0,0-3.31,1.56,9.65,9.65,0,0,0-1,5.1,7.35,7.35,0,0,0,1.23,4.48,3.9,3.9,0,0,0,3.32,1.66,4.56,4.56,0,0,0,1.89-.38l1-.54V293A4.79,4.79,0,0,0,55.16,292ZM66,302.12V295a17.13,17.13,0,0,0-.16-2.5,20,20,0,0,0-.57-2.54h4.92a6.25,6.25,0,0,0-.58,1.93,22.34,22.34,0,0,0-.17,3.11v7.16a22.41,22.41,0,0,0,.17,3.12,6.27,6.27,0,0,0,.58,1.92H65.3a6.16,6.16,0,0,0,.57-1.9A22.93,22.93,0,0,0,66,302.12Zm1.63-19.41a2.07,2.07,0,0,1,1.64.78,3,3,0,0,1,0,3.8,2.13,2.13,0,0,1-3.28,0,3,3,0,0,1,0-3.8A2.08,2.08,0,0,1,67.66,282.71Zm16.56,24.34a14.18,14.18,0,0,1-1.89.39,12.11,12.11,0,0,1-1.71.1,7.51,7.51,0,0,1-5.7-2.41,8.48,8.48,0,0,1-2.28-6.06,9.62,9.62,0,0,1,2.52-6.81,8.24,8.24,0,0,1,6.32-2.72c.68,0,1.27,0,1.77.07s1.2.15,2.08.31l-.17,4a6.62,6.62,0,0,0-1.89-1.49,4.69,4.69,0,0,0-2.08-.46,4.33,4.33,0,0,0-3.62,1.72,8.73,8.73,0,0,0,.08,9.42,4.66,4.66,0,0,0,3.83,1.76,7,7,0,0,0,1.71-.24,21.92,21.92,0,0,0,2.4-.86Zm8.57.49a6.15,6.15,0,0,1-3.89-1.08,3.69,3.69,0,0,1-1.36-3.08,3.89,3.89,0,0,1,1-2.5A6.48,6.48,0,0,1,91.09,299l5.08-2.09v-1.57a2.94,2.94,0,0,0-.87-2.24,3.27,3.27,0,0,0-2.35-.84,5.21,5.21,0,0,0-1.84.33,8.37,8.37,0,0,0-2,1.07l1-3.32a10.13,10.13,0,0,1,2-.62,8.84,8.84,0,0,1,1.93-.2,5.56,5.56,0,0,1,4.2,1.46,6,6,0,0,1,1.4,4.36v6.76a28.73,28.73,0,0,0,.14,3.26,5.44,5.44,0,0,0,.48,1.78H96.17v-1.65l-2.68,2Zm3.38-3V299.8H91.72c-.1,0-.23.32-.4,1a7,7,0,0,0-.25,1.61,2.16,2.16,0,0,0,.8,1.83,3.85,3.85,0,0,0,2.38.61,6.59,6.59,0,0,0,1.89-.27Zm7.62-2.42V288.48a21.27,21.27,0,0,0-.16-2.8,12,12,0,0,0-.57-2.25l2.46-.49,2.46-.51a11.64,11.64,0,0,0-.58,2.61,36.52,36.52,0,0,0-.17,3.94v13.14a22.41,22.41,0,0,0,.17,3.12,6.27,6.27,0,0,0,.58,1.92h-4.92a6.16,6.16,0,0,0,.57-1.9A24.67,24.67,0,0,0,103.79,302.12Z"></path></g></mask><mask id="mask-2" x="237.28" y="281.7" width="163.6" height="26.4" maskUnits="userSpaceOnUse"><g id="path-8-outside-2_5_531" data-name="path-8-outside-2 5 531"><rect class="cls-1" x="237.28" y="281.7" width="163.6" height="26.4"></rect><path class="cls-2" d="M238.94,299.88V289.59a32.09,32.09,0,0,0-.19-3.86,19,19,0,0,0-.67-3.23h13.39l-.94,2-.95,2a11.69,11.69,0,0,0-2.78-1.06,15.34,15.34,0,0,0-3.26-.3h-.88v8h7.92l-1.13,2-1.12,2a8.31,8.31,0,0,0-2.47-1,14.31,14.31,0,0,0-3.2-.3v4.06a34.67,34.67,0,0,0,.18,3.87,20.53,20.53,0,0,0,.67,3.22H238.1a19.64,19.64,0,0,0,.65-3.19A32.47,32.47,0,0,0,238.94,299.88Zm21.9,7.46a6.91,6.91,0,0,1-5.36-2.38,8.61,8.61,0,0,1-2.13-6,9.67,9.67,0,0,1,2.38-6.7,7.65,7.65,0,0,1,6-2.67,6.86,6.86,0,0,1,5.36,2.39,8.64,8.64,0,0,1,2.13,6,9.71,9.71,0,0,1-2.37,6.69A7.67,7.67,0,0,1,260.84,307.34Zm1.83-2.37a4.37,4.37,0,0,0,2.18-2.11,7.66,7.66,0,0,0,.8-3.61,8.14,8.14,0,0,0-1.56-5.21,5.39,5.39,0,0,0-4.23-2.05,4.27,4.27,0,0,0-2.18,2.12,7.69,7.69,0,0,0-.81,3.61,8.13,8.13,0,0,0,1.57,5.21A5.41,5.41,0,0,0,262.67,305Zm12.77-10v6.32a3.06,3.06,0,0,0,.68,2.18,2.71,2.71,0,0,0,2.07.71,7.45,7.45,0,0,0,2.66-.61l.56-.21V295a17,17,0,0,0-.16-2.49,17.63,17.63,0,0,0-.56-2.48h4.84a6.42,6.42,0,0,0-.57,1.9,22.18,22.18,0,0,0-.16,3.07v7a21.89,21.89,0,0,0,.16,3.07,6.33,6.33,0,0,0,.57,1.9h-3.95v-2.89L278.91,307a9.61,9.61,0,0,1-2.19.37,4.65,4.65,0,0,1-3.48-1.22,4.88,4.88,0,0,1-1.19-3.55V295a18.3,18.3,0,0,0-.15-2.47,20,20,0,0,0-.57-2.5h4.85a6.42,6.42,0,0,0-.58,1.9A23.88,23.88,0,0,0,275.44,295Zm14,7v-7a18.61,18.61,0,0,0-.15-2.49,19.35,19.35,0,0,0-.57-2.48h4.11v2.95l2.58-3a8.1,8.1,0,0,1,2.18-.36,4.33,4.33,0,0,1,3.52,1.44,6.46,6.46,0,0,1,1.2,4.21V302a31,31,0,0,0,.13,3.21,5.31,5.31,0,0,0,.48,1.76h-4.72a6,6,0,0,0,.57-1.88,24.14,24.14,0,0,0,.15-3.09v-6.26a3.11,3.11,0,0,0-.69-2.21,2.77,2.77,0,0,0-2.1-.72,6.43,6.43,0,0,0-2.53.72l-.77.34V302a21.6,21.6,0,0,0,.17,3.07,6.06,6.06,0,0,0,.57,1.9h-4.85a6,6,0,0,0,.57-1.88A24.14,24.14,0,0,0,289.45,302Zm23.13,5.34a6.46,6.46,0,0,1-5-2,7.49,7.49,0,0,1-1.84-5.33,11.12,11.12,0,0,1,2.54-7.46,8,8,0,0,1,6.36-3,6.23,6.23,0,0,1,1.92.28v-1.33a20.88,20.88,0,0,0-.15-2.75,11.16,11.16,0,0,0-.57-2.22l2.38-.48,2.39-.5a10.41,10.41,0,0,0-.52,2.45c-.09.95-.14,2.28-.14,4V302a21.6,21.6,0,0,0,.17,3.07,6.33,6.33,0,0,0,.57,1.9h-4.13v-2.31l-2,2.28A5.78,5.78,0,0,1,312.58,307.34Zm.94-15.32a3.61,3.61,0,0,0-3.27,1.54,9.62,9.62,0,0,0-1,5,7.26,7.26,0,0,0,1.21,4.41,3.88,3.88,0,0,0,3.28,1.64,4.65,4.65,0,0,0,1.86-.38l1-.53V293A4.62,4.62,0,0,0,313.52,292Zm14.63,15.32a6,6,0,0,1-3.83-1.06,3.66,3.66,0,0,1-1.34-3,3.84,3.84,0,0,1,.94-2.47,6.48,6.48,0,0,1,2.56-1.83l5-2.06v-1.54a2.92,2.92,0,0,0-.86-2.21,3.2,3.2,0,0,0-2.31-.82,5.37,5.37,0,0,0-1.82.32,8.88,8.88,0,0,0-1.92,1.05l.94-3.26a9.82,9.82,0,0,1,1.94-.61,8.64,8.64,0,0,1,1.9-.2,5.5,5.5,0,0,1,4.14,1.44,6,6,0,0,1,1.38,4.29V302a28.35,28.35,0,0,0,.13,3.21,5.31,5.31,0,0,0,.48,1.76h-4v-1.62l-2.64,2Zm3.33-2.95v-4.67H327.1c-.1,0-.23.32-.4.94a6.74,6.74,0,0,0-.24,1.59,2.13,2.13,0,0,0,.78,1.8,3.84,3.84,0,0,0,2.35.61,6.44,6.44,0,0,0,1.86-.27Zm11.72,2.95a3.45,3.45,0,0,1-2.92-1.18,6.27,6.27,0,0,1-.91-3.8v-10H337l5.78-6.09h0V290h3.95v2.34h-3.95v8.61a4.68,4.68,0,0,0,.58,2.57,2,2,0,0,0,1.76.85,5,5,0,0,0,1.32-.17,9,9,0,0,0,1.45-.61l-1.35,3.26a9.61,9.61,0,0,1-1.55.4A12,12,0,0,1,343.2,307.34Zm6.38-5.34v-7a18.3,18.3,0,0,0-.15-2.47,20,20,0,0,0-.57-2.5h4.85a6.42,6.42,0,0,0-.57,1.9A21.9,21.9,0,0,0,353,295v7a21.6,21.6,0,0,0,.17,3.07,6.33,6.33,0,0,0,.57,1.9h-4.85a6,6,0,0,0,.57-1.88A24.14,24.14,0,0,0,349.58,302Zm1.61-19.1a2.06,2.06,0,0,1,1.62.77,3,3,0,0,1,0,3.73,2.11,2.11,0,0,1-3.24,0,3,3,0,0,1,0-3.73A2.06,2.06,0,0,1,351.19,282.9Zm12.27,24.44a6.89,6.89,0,0,1-5.35-2.38,8.57,8.57,0,0,1-2.14-6,9.67,9.67,0,0,1,2.38-6.7,7.65,7.65,0,0,1,6-2.67,6.88,6.88,0,0,1,5.37,2.39,8.64,8.64,0,0,1,2.13,6,9.67,9.67,0,0,1-2.38,6.69A7.67,7.67,0,0,1,363.46,307.34Zm1.83-2.37a4.33,4.33,0,0,0,2.18-2.11,7.66,7.66,0,0,0,.81-3.61,8.14,8.14,0,0,0-1.56-5.21,5.41,5.41,0,0,0-4.24-2.05,4.3,4.3,0,0,0-2.18,2.12,7.68,7.68,0,0,0-.8,3.61,8.13,8.13,0,0,0,1.56,5.21A5.41,5.41,0,0,0,365.29,305Zm9.68-3v-7a18.61,18.61,0,0,0-.15-2.49,17.79,17.79,0,0,0-.57-2.48h4.11v2.95l2.58-3a8.1,8.1,0,0,1,2.19-.36,4.31,4.31,0,0,1,3.51,1.44,6.46,6.46,0,0,1,1.2,4.21V302a27.85,27.85,0,0,0,.14,3.21,5.09,5.09,0,0,0,.47,1.76h-4.72a5.78,5.78,0,0,0,.57-1.88,24.14,24.14,0,0,0,.15-3.09v-6.26a3.11,3.11,0,0,0-.69-2.21,2.77,2.77,0,0,0-2.1-.72,6.43,6.43,0,0,0-2.53.72l-.77.34V302a21.6,21.6,0,0,0,.17,3.07,6.33,6.33,0,0,0,.57,1.9h-4.85a5.78,5.78,0,0,0,.57-1.88A24.14,24.14,0,0,0,375,302Zm24.89-8.38a4.81,4.81,0,0,0-1.46-1.24,3.57,3.57,0,0,0-1.67-.39,2.62,2.62,0,0,0-1.68.53,1.64,1.64,0,0,0-.68,1.33,2.26,2.26,0,0,0,.46,1.4,7.61,7.61,0,0,0,1.67,1.58,14.68,14.68,0,0,1,2.92,2.83,4.58,4.58,0,0,1,.82,2.61,4.79,4.79,0,0,1-1.52,3.63,5.34,5.34,0,0,1-3.84,1.44,12.24,12.24,0,0,1-2.16-.15,14,14,0,0,1-2.22-.57v-4a7.65,7.65,0,0,0,2,1.76,3.85,3.85,0,0,0,2,.58,2.4,2.4,0,0,0,1.66-.58,1.89,1.89,0,0,0,.66-1.48,2.2,2.2,0,0,0-.54-1.39,12.13,12.13,0,0,0-2-1.79,11.81,11.81,0,0,1-2.64-2.63,4.64,4.64,0,0,1-.75-2.58,4.32,4.32,0,0,1,1.66-3.47,6.32,6.32,0,0,1,4.18-1.38,7.4,7.4,0,0,1,1.59.15,8.53,8.53,0,0,1,1.54.57Z"></path></g></mask></defs><g id="Layer_2" data-name="Layer 2"><g id="Layer_1-2" data-name="Layer 1"><path class="cls-3" d="M55.89,263.24H30.07v-13.3a3.52,3.52,0,0,0,1.14-.87,5.49,5.49,0,0,0,.79-1.32l.52-1.57a13.57,13.57,0,0,0,.44-1.67,2.21,2.21,0,0,1,0-.35,3.19,3.19,0,0,1,.14-.35v-.17a.29.29,0,0,1,.08-.18v-.35a2,2,0,0,1,.05-.39,1.37,1.37,0,0,1,.13-.39,1.34,1.34,0,0,1,0-.35,1.74,1.74,0,0,1,.13-.36l9.9-53.39H76.73l10.94,54.36V243a.79.79,0,0,0,.09.35,1.74,1.74,0,0,0,0,.43,1.48,1.48,0,0,0,.13.35,1.34,1.34,0,0,0,0,.35,1.51,1.51,0,0,0,.14.35c.06.18.1.32.13.44a1.66,1.66,0,0,0,.13.35,7.47,7.47,0,0,0,.48,1.45c.21.43.42.89.66,1.35a5.41,5.41,0,0,0,1,1.05,3,3,0,0,0,1.14.62v13.12H62.11v-13.3a2.28,2.28,0,0,0,1.18-.48,4,4,0,0,0,.83-.92,4,4,0,0,0,.53-1.14,5.37,5.37,0,0,0,.17-1.4v-.61a.36.36,0,0,1-.09-.26v-.27a4.94,4.94,0,0,1-.13-.52,3.41,3.41,0,0,0-.13-.53l-11.29-.17-.13.39a1,1,0,0,0,0,.31v.26c-.06.06-.09.1-.09.13v.48a.29.29,0,0,0-.09.13V246a4.46,4.46,0,0,0,.22,1.45,5.38,5.38,0,0,0,.57,1.18,6.42,6.42,0,0,0,1,.92,3.49,3.49,0,0,0,1.31.57v13.12ZM62.37,229l-3.85-22.23h-.18L54.67,229Zm61.8,30a1,1,0,0,1-.13.22.17.17,0,0,0-.05.13l-.13.13a.17.17,0,0,1-.13.05.86.86,0,0,1-.17.13.68.68,0,0,0-.18.13,29.37,29.37,0,0,1-3.15,2.15,10.93,10.93,0,0,1-3.15,1.26,26.89,26.89,0,0,1-3.46.84,23.17,23.17,0,0,1-3.81.3,19.67,19.67,0,0,1-6.48-1,13.13,13.13,0,0,1-5-3.11,13.52,13.52,0,0,1-3.15-4.95,18.5,18.5,0,0,1-1.06-6.52,19.42,19.42,0,0,1,1.14-7,10.28,10.28,0,0,1,3.33-4.6,30.55,30.55,0,0,1,5.12-3.15,48.93,48.93,0,0,1,6.34-2.54L123.38,227v-1.93a8.74,8.74,0,0,0-.18-1.75,9.68,9.68,0,0,0-.52-1.75,2.58,2.58,0,0,0-1.09-1.31,3.53,3.53,0,0,0-1.8-.44,4.1,4.1,0,0,0-2,.44,3,3,0,0,0-1.23,1.31,13.8,13.8,0,0,0-.57,1.79,8.56,8.56,0,0,0-.22,1.89v2.1H96.42V213.79a40.12,40.12,0,0,1,4.68-2.63,38,38,0,0,1,5-1.92,48.22,48.22,0,0,1,5.34-1.27,50.09,50.09,0,0,1,5.42-.66h.53a1.88,1.88,0,0,0,.52-.08h1.49a1.64,1.64,0,0,0,.53-.09h1c.52,0,1.06,0,1.61,0s1.13.07,1.71.13a8.49,8.49,0,0,1,.88.05c.29,0,.61.07,1,.13a8.56,8.56,0,0,1,1.75.17c.93.18,1.85.38,2.76.62s1.82.49,2.75.78a19.68,19.68,0,0,1,2.54,1.06,14.66,14.66,0,0,1,5.74,5,10.93,10.93,0,0,1,1.62,4.07,30.49,30.49,0,0,1,.57,4.37c.08,1.52.13,3.07.13,4.64v16.11c0,.64,0,1.27.08,1.88s.12,1.21.18,1.79a4,4,0,0,0,.74,1.62,7.22,7.22,0,0,0,1.54,1.45v12.16H124.17Zm-.79-19.25a.43.43,0,0,1-.22.22.45.45,0,0,0-.22.13l-.26.13a.61.61,0,0,1-.27,0l-.52.18a3.21,3.21,0,0,0-.43.17.26.26,0,0,1-.18.09h-.09l-.09.09a18.18,18.18,0,0,0-2.27.87q-1.14.53-2.1,1a4.36,4.36,0,0,0-1.45,1.45,3.86,3.86,0,0,0-.48,2v.43a3,3,0,0,0,.22,1.14,4.49,4.49,0,0,0,.57,1,2.12,2.12,0,0,0,.79.74,1.71,1.71,0,0,0,1.05.13h.35a10.13,10.13,0,0,0,1.36-.09,6,6,0,0,0,1.35-.35,13.86,13.86,0,0,0,1.45-.65,12.46,12.46,0,0,0,1.44-.92v-7.79Zm50.24-14.71,3.68-4.29a12.09,12.09,0,0,0,.83-.92,8.92,8.92,0,0,0,.66-.91c.17-.3.35-.6.52-.92a3.3,3.3,0,0,0,.35-.92,10,10,0,0,0,.31-1.18,6.3,6.3,0,0,0,.13-1.27V214a2.74,2.74,0,0,1,.09-.7V208.1h23.1v12.34a3.14,3.14,0,0,1-.48.4,3.91,3.91,0,0,1-.74.39l-.4.22a4.09,4.09,0,0,1-.39.22c-.17.12-.33.23-.48.35a2.68,2.68,0,0,0-.39.35l-.18.17a.26.26,0,0,1-.17.09l-.18.18a1.37,1.37,0,0,0-.17.17.73.73,0,0,0-.14.18.12.12,0,0,1-.13.08,1,1,0,0,0-.13.18.52.52,0,0,1-.13.17l-6.39,7.88,5.78,11.91a1.33,1.33,0,0,0,0,.39,2.33,2.33,0,0,0,.13.31.52.52,0,0,1,.13.17.73.73,0,0,0,.14.18v.17c0,.06,0,.09.08.09.3.64.6,1.27.92,1.88s.66,1.21,1,1.8a5.63,5.63,0,0,0,1.36,1.53,10,10,0,0,0,2,1.18v12.16H185.7l-11.9-24h-.18v5.25a19,19,0,0,0,.09,1.93c.06.58.12,1.14.17,1.66a3.9,3.9,0,0,0,.75,1.53,7.39,7.39,0,0,0,1.53,1.45v12.16H150.43V250.9c.06.06.1.09.13.09s.07,0,.13-.09l.13-.13.13-.13a9.75,9.75,0,0,0,1.18-1.4,3.2,3.2,0,0,0,.57-1.4,8,8,0,0,0,.22-1.58c0-.58,0-1.19,0-1.83V207.84h0v-.53c0-.64,0-1.27-.08-1.88a15.63,15.63,0,0,0-.26-1.7,3.11,3.11,0,0,0-.66-1.54,7.64,7.64,0,0,0-1.53-1.44V188.23h23.19ZM238,259a.92.92,0,0,1-.14.22.17.17,0,0,0,0,.13l-.13.13a.17.17,0,0,1-.13.05.68.68,0,0,1-.18.13.64.64,0,0,0-.17.13A29.37,29.37,0,0,1,234,262a10.93,10.93,0,0,1-3.15,1.26,26.89,26.89,0,0,1-3.46.84,23.17,23.17,0,0,1-3.81.3,19.57,19.57,0,0,1-6.47-1,13,13,0,0,1-5-3.11,13.54,13.54,0,0,1-3.16-4.95,18.73,18.73,0,0,1-1-6.52,19.42,19.42,0,0,1,1.14-7,10.28,10.28,0,0,1,3.33-4.6,30.55,30.55,0,0,1,5.12-3.15,48.93,48.93,0,0,1,6.34-2.54L237.17,227v-1.93a8.74,8.74,0,0,0-.18-1.75,9.68,9.68,0,0,0-.52-1.75,2.6,2.6,0,0,0-1.1-1.31,3.47,3.47,0,0,0-1.79-.44,4.1,4.1,0,0,0-2,.44,3,3,0,0,0-1.23,1.31,13.8,13.8,0,0,0-.57,1.79,8.56,8.56,0,0,0-.22,1.89v2.1H210.21V213.79a40.12,40.12,0,0,1,4.68-2.63,38,38,0,0,1,5-1.92,48.58,48.58,0,0,1,5.33-1.27,50.27,50.27,0,0,1,5.43-.66h.53a1.88,1.88,0,0,0,.52-.08h1.49a1.69,1.69,0,0,0,.53-.09h1c.53,0,1.07,0,1.63,0s1.12.07,1.7.13a8.46,8.46,0,0,1,.87.05c.3,0,.62.07,1,.13a8.56,8.56,0,0,1,1.75.17c.93.18,1.85.38,2.76.62s1.82.49,2.75.78a19.68,19.68,0,0,1,2.54,1.06,14.66,14.66,0,0,1,5.74,5,10.74,10.74,0,0,1,1.61,4.07,29.13,29.13,0,0,1,.58,4.37c.08,1.52.13,3.07.13,4.64v16.11c0,.64,0,1.27.08,1.88s.12,1.21.18,1.79a3.85,3.85,0,0,0,.74,1.62,7.22,7.22,0,0,0,1.54,1.45v12.16H238Zm-.79-19.25a.43.43,0,0,1-.22.22.45.45,0,0,0-.22.13l-.26.13a.62.62,0,0,1-.26,0l-.53.18a3.41,3.41,0,0,0-.44.17.24.24,0,0,1-.17.09H235l-.09.09a17.6,17.6,0,0,0-2.27.87q-1.14.53-2.1,1a4.18,4.18,0,0,0-1.45,1.45,3.86,3.86,0,0,0-.48,2v.43a2.86,2.86,0,0,0,.22,1.14,4.49,4.49,0,0,0,.57,1,2,2,0,0,0,.79.74,1.71,1.71,0,0,0,1.05.13h.35a10,10,0,0,0,1.35-.09,6.06,6.06,0,0,0,1.36-.35,12.87,12.87,0,0,0,1.44-.65,11.77,11.77,0,0,0,1.45-.92v-7.79Zm47.27,4.2v2.36a8.82,8.82,0,0,0,.21,2,10.72,10.72,0,0,0,.57,1.71,2.33,2.33,0,0,0,1.18,1.27,5.1,5.1,0,0,0,2.15.39,3.78,3.78,0,0,0,1.49-.3,4.67,4.67,0,0,0,1.31-.92,4.87,4.87,0,0,0,.83-1.36,4.14,4.14,0,0,0,.31-1.62,4.71,4.71,0,0,0-.53-2.28,4.22,4.22,0,0,0-1.49-1.57,9.59,9.59,0,0,0-2-1.14,20.22,20.22,0,0,0-2.28-.79,3.47,3.47,0,0,0-.48-.13,1.63,1.63,0,0,1-.39-.13,3.32,3.32,0,0,1-.48,0,3.59,3.59,0,0,1-.48-.14l-.83-.17-.75-.18c-.06,0-.09,0-.09-.08h-.17a1.41,1.41,0,0,1-.35-.05,1.48,1.48,0,0,1-.35-.13,1.39,1.39,0,0,1-.35,0,1.66,1.66,0,0,1-.35-.13,54.1,54.1,0,0,1-6.52-1.89,37.92,37.92,0,0,1-5.56-2.49,8.92,8.92,0,0,1-3.72-4.24,17.52,17.52,0,0,1-1.27-7.14,23.94,23.94,0,0,1,.35-4.15,20.78,20.78,0,0,1,1-3.64,12.3,12.3,0,0,1,1.93-3.24,15,15,0,0,1,3.15-2.8,12.68,12.68,0,0,1,2.1-1.22,14.74,14.74,0,0,1,2.45-.88,23.26,23.26,0,0,1,2.54-.74,23.8,23.8,0,0,1,2.63-.48,9.42,9.42,0,0,1,1.57-.22c.53,0,1-.08,1.58-.13h.78a3.9,3.9,0,0,0,.79-.09h3.85a.87.87,0,0,0,.4.09h.39a36.9,36.9,0,0,1,5.74.61q2.83.53,5.64,1.31a30,30,0,0,1,5.38,2.1,35.37,35.37,0,0,1,5,3.07v13H292.05v-2h0v-.62a7.24,7.24,0,0,0-1.05-3.15,3,3,0,0,0-1.23-1.09,4.07,4.07,0,0,0-1.83-.39,4,4,0,0,0-1.58.3,5.55,5.55,0,0,0-1.31.83,3.1,3.1,0,0,0-.88,1.19,3.89,3.89,0,0,0-.26,1.44,4.12,4.12,0,0,0,.39,1.84,3.46,3.46,0,0,0,1.19,1.31,8.81,8.81,0,0,0,1.7.88,11.7,11.7,0,0,0,1.8.52,1.49,1.49,0,0,0,.39.13l.48.13a1.57,1.57,0,0,0,.4.13,1.89,1.89,0,0,0,.39,0,1.39,1.39,0,0,1,.35,0,1.83,1.83,0,0,0,.44,0,1.51,1.51,0,0,0,.35.14,1.34,1.34,0,0,0,.35,0,1.48,1.48,0,0,0,.35.13,1.34,1.34,0,0,0,.35,0h.35a.29.29,0,0,0,.17.08h.18a70.78,70.78,0,0,1,7.17,2,45.54,45.54,0,0,1,6.22,2.62,9,9,0,0,1,4.33,4.56,19.23,19.23,0,0,1,1.45,8.05,20.67,20.67,0,0,1-1.75,9,11.29,11.29,0,0,1-5.34,5.38,28.13,28.13,0,0,1-7.66,2.67,44.41,44.41,0,0,1-8.8.83c-.76,0-1.5,0-2.23,0a22.31,22.31,0,0,1-2.32-.22c-.41-.06-.82-.1-1.23-.13s-.79-.07-1.13-.13l-1.23-.18-1.23-.17a32.78,32.78,0,0,1-4.11-.79,36.89,36.89,0,0,1-4-1.31,20,20,0,0,1-3.59-1.89,22.75,22.75,0,0,1-3.07-2.4V242.68h19.44Zm55.93-33.44a3.75,3.75,0,0,0,.87-.3c.29-.15.59-.31.88-.48l.92-.4c.32-.15.62-.28.91-.39.88-.35,1.75-.66,2.63-.92a16.49,16.49,0,0,1,2.63-.57c.87-.12,1.75-.21,2.62-.26s1.72-.09,2.54-.09a25.11,25.11,0,0,1,3.06.35,13.84,13.84,0,0,1,2.81.79,20.6,20.6,0,0,1,2.4,1.14,8.29,8.29,0,0,1,1.89,1.4,15.11,15.11,0,0,1,2.27,2.84,10.09,10.09,0,0,1,1.22,2.93,24.61,24.61,0,0,1,.53,3.15,31.81,31.81,0,0,1,.18,3.42V245.3c0,.58,0,1.15.08,1.71s.15,1.09.26,1.62a3.27,3.27,0,0,0,.71,1.4,4.29,4.29,0,0,0,1.4,1.05v12.16h-22a23.54,23.54,0,0,1-.44-2.36c-.12-.82-.23-1.66-.35-2.54-.06-.46-.1-.9-.13-1.31s-.05-.84-.05-1.31a10.43,10.43,0,0,1-.08-1.27v-1.27a11.36,11.36,0,0,1-.09-1.44V228.41c0-.29,0-.6-.05-.92a4.34,4.34,0,0,0-.21-1v-.17a.26.26,0,0,0-.09-.18.66.66,0,0,1-.09-.26.39.39,0,0,0,0-.18.34.34,0,0,1,0-.17c-.05,0-.08,0-.08-.09v-.17a8.58,8.58,0,0,0-.84-1,5.4,5.4,0,0,0-1-.88,3.81,3.81,0,0,0-1.27-.61,5.13,5.13,0,0,0-1.36-.18,4.4,4.4,0,0,0-.65.05,5.9,5.9,0,0,0-.66.13c-.23.06-.45.11-.66.18a3,3,0,0,0-.65.26V245.3c0,.58,0,1.15.08,1.71a14.4,14.4,0,0,0,.27,1.62,2.94,2.94,0,0,0,.74,1.4,4.88,4.88,0,0,0,1.45,1.05v12.16H317.17V250.9a4.35,4.35,0,0,0,1.53-1.09,2.72,2.72,0,0,0,.66-1.53,14,14,0,0,0,.26-1.71c.06-.61.09-1.27.09-2V207.14c0-.64,0-1.27-.09-1.88a17.33,17.33,0,0,0-.26-1.8,3.34,3.34,0,0,0-.75-1.53,5.29,5.29,0,0,0-1.53-1.18V188.23h23.29Z"></path><path class="cls-3" d="M200.47,82a49.2,49.2,0,1,1-49.2,49.21A49.3,49.3,0,0,1,200.47,82Zm0,5.69A43.51,43.51,0,1,1,157,131.18,43.6,43.6,0,0,1,200.47,87.66Z"></path><path class="cls-3" d="M200.47,93.23a5.2,5.2,0,1,1-5.2,5.2A5.2,5.2,0,0,1,200.47,93.23Z"></path><path class="cls-3" d="M179.17,152.71a5.83,5.83,0,1,1-4.9-10.58,33.52,33.52,0,0,0,13.79-10.24A30.62,30.62,0,0,0,194.64,114h0a5.61,5.61,0,0,1,.18-1.16v0a.61.61,0,0,1,0-.11v0a.38.38,0,0,1,0-.1v0l0-.08,0,0s0-.05,0-.08l0-.07,0-.06a.59.59,0,0,0,0-.08v0l0-.1v0a.61.61,0,0,1,.05-.12,5.22,5.22,0,0,1,.58-1h0c0-.08.11-.14.16-.21l0,0,.07-.09,0,0,0-.06.05,0,0-.06,0,0,.06-.06,0,0,0,0,.06-.06,0,0,.06,0,0,0,.06-.06,0,0,.09-.08,0,0,.21-.16h0a6.72,6.72,0,0,1,1-.58l.12,0h0l.11,0,0,0,.08,0,0,0,.08,0,.07,0h.05l.09,0h0l.11,0h0l.11,0h0a5.61,5.61,0,0,1,1.16-.18h.65a5.71,5.71,0,0,1,1.16.18h0l.12,0h0l.1,0h.05l.09,0h0l.09,0,.07,0,.05,0,.08,0,0,0,.1,0h0l.12,0a6.62,6.62,0,0,1,1,.58h0l.21.16,0,0,.09.08,0,0,.07.06.05,0,.06,0,0,0,.06.06.05,0,0,0,.06.06,0,0,.05.06,0,0,.06.06,0,0,.07.09,0,0,.16.21h0a5.78,5.78,0,0,1,.57,1,.67.67,0,0,1,.06.12v0l0,.1,0,0,0,.08,0,.06,0,.07,0,.08,0,0,0,.08v0l0,.1v0l0,.11v0a5.61,5.61,0,0,1,.18,1.16h0A30.32,30.32,0,0,0,213,131.8a30.77,30.77,0,0,0,13.7,10.41,5.83,5.83,0,1,1-4.89,10.58,47.4,47.4,0,0,1-18.7-15.25,35.9,35.9,0,0,1-2.69-3.9,39,39,0,0,1-2.69,3.9c-4.72,6.29-11.75,12.18-18.53,15.17Z"></path><path class="cls-4" d="M400.47,274.09H.47v-2.4h400Z"></path><path class="cls-4" d="M113.74,310.7V279.16h2.4V310.7Z"></path><path class="cls-5" d="M7.22,300a33,33,0,0,0,.19,3.93,21.42,21.42,0,0,0,.68,3.27H2.59a20.41,20.41,0,0,0,.67-3.23,36.26,36.26,0,0,0,.18-4V285.29l-2.57-3H6.71a3,3,0,0,0,.3,1.12,5.11,5.11,0,0,0,.75,1.18l7.83,9.68h0l7.15-9.11a8.28,8.28,0,0,0,1-1.57,3,3,0,0,0,.4-1.3H29.5a11.2,11.2,0,0,0-1.6,3.27,14.65,14.65,0,0,0-.45,3.93V300a35.28,35.28,0,0,0,.19,3.93,21.42,21.42,0,0,0,.68,3.27h-5.5a20.41,20.41,0,0,0,.67-3.23,35.94,35.94,0,0,0,.19-4V289.25h0L15.46,300,7.22,289.81Zm32.33,7.58a7.72,7.72,0,0,1-5.85-2.39A8.51,8.51,0,0,1,31.41,299a11.13,11.13,0,0,1,2-6.78,6,6,0,0,1,5-2.7h0a5.43,5.43,0,0,1,4.54,2,9.29,9.29,0,0,1,1.6,5.84V299H35.06a8.13,8.13,0,0,0,1.37,3.9,4.48,4.48,0,0,0,3.84,2,8.25,8.25,0,0,0,2.15-.29,7.42,7.42,0,0,0,1.93-.81L43,307.05a13.47,13.47,0,0,1-1.81.39A11,11,0,0,1,39.55,307.54Zm2.24-11a6.17,6.17,0,0,0-.83-3.44A2.71,2.71,0,0,0,38.57,292h0a2.94,2.94,0,0,0-2.64,1.46,6.8,6.8,0,0,0-.91,3.17Zm12.42,11a6.55,6.55,0,0,1-5.05-2,7.62,7.62,0,0,1-1.87-5.41,11.25,11.25,0,0,1,2.58-7.57,8.13,8.13,0,0,1,6.47-3,6.52,6.52,0,0,1,1.95.28v-1.34a21.27,21.27,0,0,0-.16-2.8,11.3,11.3,0,0,0-.58-2.25l2.42-.49,2.43-.51a10,10,0,0,0-.53,2.49c-.09,1-.14,2.32-.14,4.06v13.14a20.94,20.94,0,0,0,.17,3.12,6.27,6.27,0,0,0,.58,1.92H58.29v-2.35l-2,2.32A5.74,5.74,0,0,1,54.21,307.54ZM55.16,292a3.65,3.65,0,0,0-3.31,1.56,9.65,9.65,0,0,0-1,5.1,7.35,7.35,0,0,0,1.23,4.48,3.9,3.9,0,0,0,3.32,1.66,4.56,4.56,0,0,0,1.89-.38l1-.54V293A4.79,4.79,0,0,0,55.16,292ZM66,302.12V295a17.13,17.13,0,0,0-.16-2.5,20,20,0,0,0-.57-2.54h4.92a6.25,6.25,0,0,0-.58,1.93,22.34,22.34,0,0,0-.17,3.11v7.16a22.41,22.41,0,0,0,.17,3.12,6.27,6.27,0,0,0,.58,1.92H65.3a6.16,6.16,0,0,0,.57-1.9A22.93,22.93,0,0,0,66,302.12Zm1.63-19.41a2.07,2.07,0,0,1,1.64.78,3,3,0,0,1,0,3.8,2.13,2.13,0,0,1-3.28,0,3,3,0,0,1,0-3.8A2.08,2.08,0,0,1,67.66,282.71Zm16.56,24.34a14.18,14.18,0,0,1-1.89.39,12.11,12.11,0,0,1-1.71.1,7.51,7.51,0,0,1-5.7-2.41,8.48,8.48,0,0,1-2.28-6.06,9.62,9.62,0,0,1,2.52-6.81,8.24,8.24,0,0,1,6.32-2.72c.68,0,1.27,0,1.77.07s1.2.15,2.08.31l-.17,4a6.62,6.62,0,0,0-1.89-1.49,4.69,4.69,0,0,0-2.08-.46,4.33,4.33,0,0,0-3.62,1.72,8.73,8.73,0,0,0,.08,9.42,4.66,4.66,0,0,0,3.83,1.76,7,7,0,0,0,1.71-.24,21.92,21.92,0,0,0,2.4-.86Zm8.57.49a6.15,6.15,0,0,1-3.89-1.08,3.69,3.69,0,0,1-1.36-3.08,3.89,3.89,0,0,1,1-2.5A6.48,6.48,0,0,1,91.09,299l5.08-2.09v-1.57a2.94,2.94,0,0,0-.87-2.24,3.27,3.27,0,0,0-2.35-.84,5.21,5.21,0,0,0-1.84.33,8.37,8.37,0,0,0-2,1.07l1-3.32a10.13,10.13,0,0,1,2-.62,8.84,8.84,0,0,1,1.93-.2,5.56,5.56,0,0,1,4.2,1.46,6,6,0,0,1,1.4,4.36v6.76a28.73,28.73,0,0,0,.14,3.26,5.44,5.44,0,0,0,.48,1.78H96.17v-1.65l-2.68,2Zm3.38-3V299.8H91.72c-.1,0-.23.32-.4,1a7,7,0,0,0-.25,1.61,2.16,2.16,0,0,0,.8,1.83,3.85,3.85,0,0,0,2.38.61,6.59,6.59,0,0,0,1.89-.27Zm7.62-2.42V288.48a21.27,21.27,0,0,0-.16-2.8,12,12,0,0,0-.57-2.25l2.46-.49,2.46-.51a11.64,11.64,0,0,0-.58,2.61,36.52,36.52,0,0,0-.17,3.94v13.14a22.41,22.41,0,0,0,.17,3.12,6.27,6.27,0,0,0,.58,1.92h-4.92a6.16,6.16,0,0,0,.57-1.9A24.67,24.67,0,0,0,103.79,302.12Z"></path><g class="cls-6"><path class="cls-7" d="M7.22,300a33,33,0,0,0,.19,3.93,21.42,21.42,0,0,0,.68,3.27H2.59a20.41,20.41,0,0,0,.67-3.23,36.26,36.26,0,0,0,.18-4V285.29l-2.57-3H6.71a3,3,0,0,0,.3,1.12,5.11,5.11,0,0,0,.75,1.18l7.83,9.68h0l7.15-9.11a8.28,8.28,0,0,0,1-1.57,3,3,0,0,0,.4-1.3H29.5a11.2,11.2,0,0,0-1.6,3.27,14.65,14.65,0,0,0-.45,3.93V300a35.28,35.28,0,0,0,.19,3.93,21.42,21.42,0,0,0,.68,3.27h-5.5a20.41,20.41,0,0,0,.67-3.23,35.94,35.94,0,0,0,.19-4V289.25h0L15.46,300,7.22,289.81Zm32.33,7.58a7.72,7.72,0,0,1-5.85-2.39A8.51,8.51,0,0,1,31.41,299a11.13,11.13,0,0,1,2-6.78,6,6,0,0,1,5-2.7h0a5.43,5.43,0,0,1,4.54,2,9.29,9.29,0,0,1,1.6,5.84V299H35.06a8.13,8.13,0,0,0,1.37,3.9,4.48,4.48,0,0,0,3.84,2,8.25,8.25,0,0,0,2.15-.29,7.42,7.42,0,0,0,1.93-.81L43,307.05a13.47,13.47,0,0,1-1.81.39A11,11,0,0,1,39.55,307.54Zm2.24-11a6.17,6.17,0,0,0-.83-3.44A2.71,2.71,0,0,0,38.57,292h0a2.94,2.94,0,0,0-2.64,1.46,6.8,6.8,0,0,0-.91,3.17Zm12.42,11a6.55,6.55,0,0,1-5.05-2,7.62,7.62,0,0,1-1.87-5.41,11.25,11.25,0,0,1,2.58-7.57,8.13,8.13,0,0,1,6.47-3,6.52,6.52,0,0,1,1.95.28v-1.34a21.27,21.27,0,0,0-.16-2.8,11.3,11.3,0,0,0-.58-2.25l2.42-.49,2.43-.51a10,10,0,0,0-.53,2.49c-.09,1-.14,2.32-.14,4.06v13.14a20.94,20.94,0,0,0,.17,3.12,6.27,6.27,0,0,0,.58,1.92H58.29v-2.35l-2,2.32A5.74,5.74,0,0,1,54.21,307.54ZM55.16,292a3.65,3.65,0,0,0-3.31,1.56,9.65,9.65,0,0,0-1,5.1,7.35,7.35,0,0,0,1.23,4.48,3.9,3.9,0,0,0,3.32,1.66,4.56,4.56,0,0,0,1.89-.38l1-.54V293A4.79,4.79,0,0,0,55.16,292ZM66,302.12V295a17.13,17.13,0,0,0-.16-2.5,20,20,0,0,0-.57-2.54h4.92a6.25,6.25,0,0,0-.58,1.93,22.34,22.34,0,0,0-.17,3.11v7.16a22.41,22.41,0,0,0,.17,3.12,6.27,6.27,0,0,0,.58,1.92H65.3a6.16,6.16,0,0,0,.57-1.9A22.93,22.93,0,0,0,66,302.12Zm1.63-19.41a2.07,2.07,0,0,1,1.64.78,3,3,0,0,1,0,3.8,2.13,2.13,0,0,1-3.28,0,3,3,0,0,1,0-3.8A2.08,2.08,0,0,1,67.66,282.71Zm16.56,24.34a14.18,14.18,0,0,1-1.89.39,12.11,12.11,0,0,1-1.71.1,7.51,7.51,0,0,1-5.7-2.41,8.48,8.48,0,0,1-2.28-6.06,9.62,9.62,0,0,1,2.52-6.81,8.24,8.24,0,0,1,6.32-2.72c.68,0,1.27,0,1.77.07s1.2.15,2.08.31l-.17,4a6.62,6.62,0,0,0-1.89-1.49,4.69,4.69,0,0,0-2.08-.46,4.33,4.33,0,0,0-3.62,1.72,8.73,8.73,0,0,0,.08,9.42,4.66,4.66,0,0,0,3.83,1.76,7,7,0,0,0,1.71-.24,21.92,21.92,0,0,0,2.4-.86Zm8.57.49a6.15,6.15,0,0,1-3.89-1.08,3.69,3.69,0,0,1-1.36-3.08,3.89,3.89,0,0,1,1-2.5A6.48,6.48,0,0,1,91.09,299l5.08-2.09v-1.57a2.94,2.94,0,0,0-.87-2.24,3.27,3.27,0,0,0-2.35-.84,5.21,5.21,0,0,0-1.84.33,8.37,8.37,0,0,0-2,1.07l1-3.32a10.13,10.13,0,0,1,2-.62,8.84,8.84,0,0,1,1.93-.2,5.56,5.56,0,0,1,4.2,1.46,6,6,0,0,1,1.4,4.36v6.76a28.73,28.73,0,0,0,.14,3.26,5.44,5.44,0,0,0,.48,1.78H96.17v-1.65l-2.68,2Zm3.38-3V299.8H91.72c-.1,0-.23.32-.4,1a7,7,0,0,0-.25,1.61,2.16,2.16,0,0,0,.8,1.83,3.85,3.85,0,0,0,2.38.61,6.59,6.59,0,0,0,1.89-.27Zm7.62-2.42V288.48a21.27,21.27,0,0,0-.16-2.8,12,12,0,0,0-.57-2.25l2.46-.49,2.46-.51a11.64,11.64,0,0,0-.58,2.61,36.52,36.52,0,0,0-.17,3.94v13.14a22.41,22.41,0,0,0,.17,3.12,6.27,6.27,0,0,0,.58,1.92h-4.92a6.16,6.16,0,0,0,.57-1.9A24.67,24.67,0,0,0,103.79,302.12Z"></path></g><path class="cls-5" d="M238.94,299.88V289.59a32.09,32.09,0,0,0-.19-3.86,19,19,0,0,0-.67-3.23h13.39l-.94,2-.95,2a11.69,11.69,0,0,0-2.78-1.06,15.34,15.34,0,0,0-3.26-.3h-.88v8h7.92l-1.13,2-1.12,2a8.31,8.31,0,0,0-2.47-1,14.31,14.31,0,0,0-3.2-.3v4.06a34.67,34.67,0,0,0,.18,3.87,20.53,20.53,0,0,0,.67,3.22H238.1a19.64,19.64,0,0,0,.65-3.19A32.47,32.47,0,0,0,238.94,299.88Zm21.9,7.46a6.91,6.91,0,0,1-5.36-2.38,8.61,8.61,0,0,1-2.13-6,9.67,9.67,0,0,1,2.38-6.7,7.65,7.65,0,0,1,6-2.67,6.86,6.86,0,0,1,5.36,2.39,8.64,8.64,0,0,1,2.13,6,9.71,9.71,0,0,1-2.37,6.69A7.67,7.67,0,0,1,260.84,307.34Zm1.83-2.37a4.37,4.37,0,0,0,2.18-2.11,7.66,7.66,0,0,0,.8-3.61,8.14,8.14,0,0,0-1.56-5.21,5.39,5.39,0,0,0-4.23-2.05,4.27,4.27,0,0,0-2.18,2.12,7.69,7.69,0,0,0-.81,3.61,8.13,8.13,0,0,0,1.57,5.21A5.41,5.41,0,0,0,262.67,305Zm12.77-10v6.32a3.06,3.06,0,0,0,.68,2.18,2.71,2.71,0,0,0,2.07.71,7.45,7.45,0,0,0,2.66-.61l.56-.21V295a17,17,0,0,0-.16-2.49,17.63,17.63,0,0,0-.56-2.48h4.84a6.42,6.42,0,0,0-.57,1.9,22.18,22.18,0,0,0-.16,3.07v7a21.89,21.89,0,0,0,.16,3.07,6.33,6.33,0,0,0,.57,1.9h-3.95v-2.89L278.91,307a9.61,9.61,0,0,1-2.19.37,4.65,4.65,0,0,1-3.48-1.22,4.88,4.88,0,0,1-1.19-3.55V295a18.3,18.3,0,0,0-.15-2.47,20,20,0,0,0-.57-2.5h4.85a6.42,6.42,0,0,0-.58,1.9A23.88,23.88,0,0,0,275.44,295Zm14,7v-7a18.61,18.61,0,0,0-.15-2.49,19.35,19.35,0,0,0-.57-2.48h4.11v2.95l2.58-3a8.1,8.1,0,0,1,2.18-.36,4.33,4.33,0,0,1,3.52,1.44,6.46,6.46,0,0,1,1.2,4.21V302a31,31,0,0,0,.13,3.21,5.31,5.31,0,0,0,.48,1.76h-4.72a6,6,0,0,0,.57-1.88,24.14,24.14,0,0,0,.15-3.09v-6.26a3.11,3.11,0,0,0-.69-2.21,2.77,2.77,0,0,0-2.1-.72,6.43,6.43,0,0,0-2.53.72l-.77.34V302a21.6,21.6,0,0,0,.17,3.07,6.06,6.06,0,0,0,.57,1.9h-4.85a6,6,0,0,0,.57-1.88A24.14,24.14,0,0,0,289.45,302Zm23.13,5.34a6.46,6.46,0,0,1-5-2,7.49,7.49,0,0,1-1.84-5.33,11.12,11.12,0,0,1,2.54-7.46,8,8,0,0,1,6.36-3,6.23,6.23,0,0,1,1.92.28v-1.33a20.88,20.88,0,0,0-.15-2.75,11.16,11.16,0,0,0-.57-2.22l2.38-.48,2.39-.5a10.41,10.41,0,0,0-.52,2.45c-.09.95-.14,2.28-.14,4V302a21.6,21.6,0,0,0,.17,3.07,6.33,6.33,0,0,0,.57,1.9h-4.13v-2.31l-2,2.28A5.78,5.78,0,0,1,312.58,307.34Zm.94-15.32a3.61,3.61,0,0,0-3.27,1.54,9.62,9.62,0,0,0-1,5,7.26,7.26,0,0,0,1.21,4.41,3.88,3.88,0,0,0,3.28,1.64,4.65,4.65,0,0,0,1.86-.38l1-.53V293A4.62,4.62,0,0,0,313.52,292Zm14.63,15.32a6,6,0,0,1-3.83-1.06,3.66,3.66,0,0,1-1.34-3,3.84,3.84,0,0,1,.94-2.47,6.48,6.48,0,0,1,2.56-1.83l5-2.06v-1.54a2.92,2.92,0,0,0-.86-2.21,3.2,3.2,0,0,0-2.31-.82,5.37,5.37,0,0,0-1.82.32,8.88,8.88,0,0,0-1.92,1.05l.94-3.26a9.82,9.82,0,0,1,1.94-.61,8.64,8.64,0,0,1,1.9-.2,5.5,5.5,0,0,1,4.14,1.44,6,6,0,0,1,1.38,4.29V302a28.35,28.35,0,0,0,.13,3.21,5.31,5.31,0,0,0,.48,1.76h-4v-1.62l-2.64,2Zm3.33-2.95v-4.67H327.1c-.1,0-.23.32-.4.94a6.74,6.74,0,0,0-.24,1.59,2.13,2.13,0,0,0,.78,1.8,3.84,3.84,0,0,0,2.35.61,6.44,6.44,0,0,0,1.86-.27Zm11.72,2.95a3.45,3.45,0,0,1-2.92-1.18,6.27,6.27,0,0,1-.91-3.8v-10H337l5.78-6.09h0V290h3.95v2.34h-3.95v8.61a4.68,4.68,0,0,0,.58,2.57,2,2,0,0,0,1.76.85,5,5,0,0,0,1.32-.17,9,9,0,0,0,1.45-.61l-1.35,3.26a9.61,9.61,0,0,1-1.55.4A12,12,0,0,1,343.2,307.34Zm6.38-5.34v-7a18.3,18.3,0,0,0-.15-2.47,20,20,0,0,0-.57-2.5h4.85a6.42,6.42,0,0,0-.57,1.9A21.9,21.9,0,0,0,353,295v7a21.6,21.6,0,0,0,.17,3.07,6.33,6.33,0,0,0,.57,1.9h-4.85a6,6,0,0,0,.57-1.88A24.14,24.14,0,0,0,349.58,302Zm1.61-19.1a2.06,2.06,0,0,1,1.62.77,3,3,0,0,1,0,3.73,2.11,2.11,0,0,1-3.24,0,3,3,0,0,1,0-3.73A2.06,2.06,0,0,1,351.19,282.9Zm12.27,24.44a6.89,6.89,0,0,1-5.35-2.38,8.57,8.57,0,0,1-2.14-6,9.67,9.67,0,0,1,2.38-6.7,7.65,7.65,0,0,1,6-2.67,6.88,6.88,0,0,1,5.37,2.39,8.64,8.64,0,0,1,2.13,6,9.67,9.67,0,0,1-2.38,6.69A7.67,7.67,0,0,1,363.46,307.34Zm1.83-2.37a4.33,4.33,0,0,0,2.18-2.11,7.66,7.66,0,0,0,.81-3.61,8.14,8.14,0,0,0-1.56-5.21,5.41,5.41,0,0,0-4.24-2.05,4.3,4.3,0,0,0-2.18,2.12,7.68,7.68,0,0,0-.8,3.61,8.13,8.13,0,0,0,1.56,5.21A5.41,5.41,0,0,0,365.29,305Zm9.68-3v-7a18.61,18.61,0,0,0-.15-2.49,17.79,17.79,0,0,0-.57-2.48h4.11v2.95l2.58-3a8.1,8.1,0,0,1,2.19-.36,4.31,4.31,0,0,1,3.51,1.44,6.46,6.46,0,0,1,1.2,4.21V302a27.85,27.85,0,0,0,.14,3.21,5.09,5.09,0,0,0,.47,1.76h-4.72a5.78,5.78,0,0,0,.57-1.88,24.14,24.14,0,0,0,.15-3.09v-6.26a3.11,3.11,0,0,0-.69-2.21,2.77,2.77,0,0,0-2.1-.72,6.43,6.43,0,0,0-2.53.72l-.77.34V302a21.6,21.6,0,0,0,.17,3.07,6.33,6.33,0,0,0,.57,1.9h-4.85a5.78,5.78,0,0,0,.57-1.88A24.14,24.14,0,0,0,375,302Zm24.89-8.38a4.81,4.81,0,0,0-1.46-1.24,3.57,3.57,0,0,0-1.67-.39,2.62,2.62,0,0,0-1.68.53,1.64,1.64,0,0,0-.68,1.33,2.26,2.26,0,0,0,.46,1.4,7.61,7.61,0,0,0,1.67,1.58,14.68,14.68,0,0,1,2.92,2.83,4.58,4.58,0,0,1,.82,2.61,4.79,4.79,0,0,1-1.52,3.63,5.34,5.34,0,0,1-3.84,1.44,12.24,12.24,0,0,1-2.16-.15,14,14,0,0,1-2.22-.57v-4a7.65,7.65,0,0,0,2,1.76,3.85,3.85,0,0,0,2,.58,2.4,2.4,0,0,0,1.66-.58,1.89,1.89,0,0,0,.66-1.48,2.2,2.2,0,0,0-.54-1.39,12.13,12.13,0,0,0-2-1.79,11.81,11.81,0,0,1-2.64-2.63,4.64,4.64,0,0,1-.75-2.58,4.32,4.32,0,0,1,1.66-3.47,6.32,6.32,0,0,1,4.18-1.38,7.4,7.4,0,0,1,1.59.15,8.53,8.53,0,0,1,1.54.57Z"></path><g class="cls-8"><path class="cls-7" d="M238.94,299.88V289.59a32.09,32.09,0,0,0-.19-3.86,19,19,0,0,0-.67-3.23h13.39l-.94,2-.95,2a11.69,11.69,0,0,0-2.78-1.06,15.34,15.34,0,0,0-3.26-.3h-.88v8h7.92l-1.13,2-1.12,2a8.31,8.31,0,0,0-2.47-1,14.31,14.31,0,0,0-3.2-.3v4.06a34.67,34.67,0,0,0,.18,3.87,20.53,20.53,0,0,0,.67,3.22H238.1a19.64,19.64,0,0,0,.65-3.19A32.47,32.47,0,0,0,238.94,299.88Zm21.9,7.46a6.91,6.91,0,0,1-5.36-2.38,8.61,8.61,0,0,1-2.13-6,9.67,9.67,0,0,1,2.38-6.7,7.65,7.65,0,0,1,6-2.67,6.86,6.86,0,0,1,5.36,2.39,8.64,8.64,0,0,1,2.13,6,9.71,9.71,0,0,1-2.37,6.69A7.67,7.67,0,0,1,260.84,307.34Zm1.83-2.37a4.37,4.37,0,0,0,2.18-2.11,7.66,7.66,0,0,0,.8-3.61,8.14,8.14,0,0,0-1.56-5.21,5.39,5.39,0,0,0-4.23-2.05,4.27,4.27,0,0,0-2.18,2.12,7.69,7.69,0,0,0-.81,3.61,8.13,8.13,0,0,0,1.57,5.21A5.41,5.41,0,0,0,262.67,305Zm12.77-10v6.32a3.06,3.06,0,0,0,.68,2.18,2.71,2.71,0,0,0,2.07.71,7.45,7.45,0,0,0,2.66-.61l.56-.21V295a17,17,0,0,0-.16-2.49,17.63,17.63,0,0,0-.56-2.48h4.84a6.42,6.42,0,0,0-.57,1.9,22.18,22.18,0,0,0-.16,3.07v7a21.89,21.89,0,0,0,.16,3.07,6.33,6.33,0,0,0,.57,1.9h-3.95v-2.89L278.91,307a9.61,9.61,0,0,1-2.19.37,4.65,4.65,0,0,1-3.48-1.22,4.88,4.88,0,0,1-1.19-3.55V295a18.3,18.3,0,0,0-.15-2.47,20,20,0,0,0-.57-2.5h4.85a6.42,6.42,0,0,0-.58,1.9A23.88,23.88,0,0,0,275.44,295Zm14,7v-7a18.61,18.61,0,0,0-.15-2.49,19.35,19.35,0,0,0-.57-2.48h4.11v2.95l2.58-3a8.1,8.1,0,0,1,2.18-.36,4.33,4.33,0,0,1,3.52,1.44,6.46,6.46,0,0,1,1.2,4.21V302a31,31,0,0,0,.13,3.21,5.31,5.31,0,0,0,.48,1.76h-4.72a6,6,0,0,0,.57-1.88,24.14,24.14,0,0,0,.15-3.09v-6.26a3.11,3.11,0,0,0-.69-2.21,2.77,2.77,0,0,0-2.1-.72,6.43,6.43,0,0,0-2.53.72l-.77.34V302a21.6,21.6,0,0,0,.17,3.07,6.06,6.06,0,0,0,.57,1.9h-4.85a6,6,0,0,0,.57-1.88A24.14,24.14,0,0,0,289.45,302Zm23.13,5.34a6.46,6.46,0,0,1-5-2,7.49,7.49,0,0,1-1.84-5.33,11.12,11.12,0,0,1,2.54-7.46,8,8,0,0,1,6.36-3,6.23,6.23,0,0,1,1.92.28v-1.33a20.88,20.88,0,0,0-.15-2.75,11.16,11.16,0,0,0-.57-2.22l2.38-.48,2.39-.5a10.41,10.41,0,0,0-.52,2.45c-.09.95-.14,2.28-.14,4V302a21.6,21.6,0,0,0,.17,3.07,6.33,6.33,0,0,0,.57,1.9h-4.13v-2.31l-2,2.28A5.78,5.78,0,0,1,312.58,307.34Zm.94-15.32a3.61,3.61,0,0,0-3.27,1.54,9.62,9.62,0,0,0-1,5,7.26,7.26,0,0,0,1.21,4.41,3.88,3.88,0,0,0,3.28,1.64,4.65,4.65,0,0,0,1.86-.38l1-.53V293A4.62,4.62,0,0,0,313.52,292Zm14.63,15.32a6,6,0,0,1-3.83-1.06,3.66,3.66,0,0,1-1.34-3,3.84,3.84,0,0,1,.94-2.47,6.48,6.48,0,0,1,2.56-1.83l5-2.06v-1.54a2.92,2.92,0,0,0-.86-2.21,3.2,3.2,0,0,0-2.31-.82,5.37,5.37,0,0,0-1.82.32,8.88,8.88,0,0,0-1.92,1.05l.94-3.26a9.82,9.82,0,0,1,1.94-.61,8.64,8.64,0,0,1,1.9-.2,5.5,5.5,0,0,1,4.14,1.44,6,6,0,0,1,1.38,4.29V302a28.35,28.35,0,0,0,.13,3.21,5.31,5.31,0,0,0,.48,1.76h-4v-1.62l-2.64,2Zm3.33-2.95v-4.67H327.1c-.1,0-.23.32-.4.94a6.74,6.74,0,0,0-.24,1.59,2.13,2.13,0,0,0,.78,1.8,3.84,3.84,0,0,0,2.35.61,6.44,6.44,0,0,0,1.86-.27Zm11.72,2.95a3.45,3.45,0,0,1-2.92-1.18,6.27,6.27,0,0,1-.91-3.8v-10H337l5.78-6.09h0V290h3.95v2.34h-3.95v8.61a4.68,4.68,0,0,0,.58,2.57,2,2,0,0,0,1.76.85,5,5,0,0,0,1.32-.17,9,9,0,0,0,1.45-.61l-1.35,3.26a9.61,9.61,0,0,1-1.55.4A12,12,0,0,1,343.2,307.34Zm6.38-5.34v-7a18.3,18.3,0,0,0-.15-2.47,20,20,0,0,0-.57-2.5h4.85a6.42,6.42,0,0,0-.57,1.9A21.9,21.9,0,0,0,353,295v7a21.6,21.6,0,0,0,.17,3.07,6.33,6.33,0,0,0,.57,1.9h-4.85a6,6,0,0,0,.57-1.88A24.14,24.14,0,0,0,349.58,302Zm1.61-19.1a2.06,2.06,0,0,1,1.62.77,3,3,0,0,1,0,3.73,2.11,2.11,0,0,1-3.24,0,3,3,0,0,1,0-3.73A2.06,2.06,0,0,1,351.19,282.9Zm12.27,24.44a6.89,6.89,0,0,1-5.35-2.38,8.57,8.57,0,0,1-2.14-6,9.67,9.67,0,0,1,2.38-6.7,7.65,7.65,0,0,1,6-2.67,6.88,6.88,0,0,1,5.37,2.39,8.64,8.64,0,0,1,2.13,6,9.67,9.67,0,0,1-2.38,6.69A7.67,7.67,0,0,1,363.46,307.34Zm1.83-2.37a4.33,4.33,0,0,0,2.18-2.11,7.66,7.66,0,0,0,.81-3.61,8.14,8.14,0,0,0-1.56-5.21,5.41,5.41,0,0,0-4.24-2.05,4.3,4.3,0,0,0-2.18,2.12,7.68,7.68,0,0,0-.8,3.61,8.13,8.13,0,0,0,1.56,5.21A5.41,5.41,0,0,0,365.29,305Zm9.68-3v-7a18.61,18.61,0,0,0-.15-2.49,17.79,17.79,0,0,0-.57-2.48h4.11v2.95l2.58-3a8.1,8.1,0,0,1,2.19-.36,4.31,4.31,0,0,1,3.51,1.44,6.46,6.46,0,0,1,1.2,4.21V302a27.85,27.85,0,0,0,.14,3.21,5.09,5.09,0,0,0,.47,1.76h-4.72a5.78,5.78,0,0,0,.57-1.88,24.14,24.14,0,0,0,.15-3.09v-6.26a3.11,3.11,0,0,0-.69-2.21,2.77,2.77,0,0,0-2.1-.72,6.43,6.43,0,0,0-2.53.72l-.77.34V302a21.6,21.6,0,0,0,.17,3.07,6.33,6.33,0,0,0,.57,1.9h-4.85a5.78,5.78,0,0,0,.57-1.88A24.14,24.14,0,0,0,375,302Zm24.89-8.38a4.81,4.81,0,0,0-1.46-1.24,3.57,3.57,0,0,0-1.67-.39,2.62,2.62,0,0,0-1.68.53,1.64,1.64,0,0,0-.68,1.33,2.26,2.26,0,0,0,.46,1.4,7.61,7.61,0,0,0,1.67,1.58,14.68,14.68,0,0,1,2.92,2.83,4.58,4.58,0,0,1,.82,2.61,4.79,4.79,0,0,1-1.52,3.63,5.34,5.34,0,0,1-3.84,1.44,12.24,12.24,0,0,1-2.16-.15,14,14,0,0,1-2.22-.57v-4a7.65,7.65,0,0,0,2,1.76,3.85,3.85,0,0,0,2,.58,2.4,2.4,0,0,0,1.66-.58,1.89,1.89,0,0,0,.66-1.48,2.2,2.2,0,0,0-.54-1.39,12.13,12.13,0,0,0-2-1.79,11.81,11.81,0,0,1-2.64-2.63,4.64,4.64,0,0,1-.75-2.58,4.32,4.32,0,0,1,1.66-3.47,6.32,6.32,0,0,1,4.18-1.38,7.4,7.4,0,0,1,1.59.15,8.53,8.53,0,0,1,1.54.57Z"></path></g><path class="cls-9" d="M124.33,282.06h-.26l.07.26a20.28,20.28,0,0,1,.68,3.25,35,35,0,0,1,.19,3.9v10.45a35,35,0,0,1-.19,3.94,21.3,21.3,0,0,1-.66,3.21l-.08.25h6l-.08-.25a21,21,0,0,1-.67-3.24,32.76,32.76,0,0,1-.19-3.91V289.47a32.85,32.85,0,0,1,.19-3.94,20.59,20.59,0,0,1,.66-3.21l.07-.26h-5.77Z"></path><path class="cls-9" d="M134.52,282.06h-.27l.08.26a21.37,21.37,0,0,1,.67,3.25,32.7,32.7,0,0,1,.19,3.9v10.45a32.74,32.74,0,0,1-.19,3.94,20.13,20.13,0,0,1-.66,3.21l-.07.25h6l-.07-.25a21.06,21.06,0,0,1-.68-3.24,35,35,0,0,1-.19-3.91V289.47a35.09,35.09,0,0,1,.19-3.94,21.82,21.82,0,0,1,.66-3.21l.08-.26h-5.77Z"></path><path class="cls-9" d="M147.58,285.43c.88-.13,1.93-.22,3.15-.28v14.77a29.07,29.07,0,0,1-.21,3.77,22.34,22.34,0,0,1-.74,3.38l-.07.25h6.23l-.08-.25a23.43,23.43,0,0,1-.74-3.43h0a26.77,26.77,0,0,1-.22-3.72V285.05a15,15,0,0,1,2.52.33,28.6,28.6,0,0,1,3.7,1.16l.2.07.06-.2.6-2h0l.59-2,.08-.26h-18.3l0,.14-.73,2.15h0l-.73,2.15-.17.47.45-.23a13.8,13.8,0,0,1,4.46-1.31Z"></path><path class="cls-9" d="M164.13,294.86l-.28-.11v4.61l.27-.1a6.66,6.66,0,0,1,1.18-.25h0a11.11,11.11,0,0,1,1.48-.11h1.93a6.62,6.62,0,0,1,1.4.15h0a5.91,5.91,0,0,1,1.25.34l.28.12v-4.62l-.27.1a5.75,5.75,0,0,1-1.18.26h0a11.11,11.11,0,0,1-1.48.11h-1.93a7.35,7.35,0,0,1-1.4-.15h0A5.85,5.85,0,0,1,164.13,294.86Z"></path><path class="cls-9" d="M181.63,305.65h0c1.55-1.45,2.3-3.6,2.3-6.42V289.3a32.16,32.16,0,0,1,.26-4,13.56,13.56,0,0,1,.63-2.94l.11-.28H175l0,.13-1.36,3.5-.13.35.36-.08a31.38,31.38,0,0,1,3.32-.56c.65-.07,1.4-.11,2.24-.14V298c0,3.17-1,5.57-2.84,7.22a9.25,9.25,0,0,1-3.64,1.91l0,0,0,0h0l-.29.26.38.09a8.74,8.74,0,0,0,1.94.21C177.82,307.79,180.09,307.09,181.63,305.65Z"></path><path class="cls-9" d="M188.48,307.07l-.07.25H202l0-.12,1-2.51h0l1-2.5.22-.54-.5.29a16.19,16.19,0,0,1-5.06,1.77h0a38,38,0,0,1-5.31.48V296a15.21,15.21,0,0,1,3.17.3,8.47,8.47,0,0,1,2.45,1l.17.11.1-.18,1.15-2h0l1.14-2,.17-.3H193.5v-7.74h.82a15.44,15.44,0,0,1,3.29.3h0a10.63,10.63,0,0,1,2.76,1.06l.18.1.09-.19,1-2.05h0l.95-2,.13-.29h-14.3l.07.26a20.28,20.28,0,0,1,.68,3.25,34.83,34.83,0,0,1,.19,3.9v10.45a35.22,35.22,0,0,1-.19,3.94A20.13,20.13,0,0,1,188.48,307.07Z"></path><path class="cls-9" d="M206.45,307.07l-.07.25H220l0-.12,1.05-2.51h0l1-2.5.22-.54-.5.29a16.19,16.19,0,0,1-5.06,1.77h0a37.89,37.89,0,0,1-5.31.48V296a15.14,15.14,0,0,1,3.17.3,8.25,8.25,0,0,1,2.45,1l.18.11.1-.18,1.14-2h0l1.14-2,.17-.3h-8.35v-7.74h.82a15.44,15.44,0,0,1,3.29.3h0a10.63,10.63,0,0,1,2.76,1.06l.18.1.09-.19,1-2.05h0l.95-2,.14-.29H206.36l.08.26a20.22,20.22,0,0,1,.67,3.25,32.58,32.58,0,0,1,.19,3.9v10.45a33,33,0,0,1-.19,3.94A20.13,20.13,0,0,1,206.45,307.07Z"></path><path class="cls-4" d="M227.7,310.7V279.16h2.4V310.7Z"></path><rect class="cls-10" x="0.47" width="400" height="400"></rect></g></g></svg>