<svg xmlns="http://www.w3.org/2000/svg" viewBox="0 0 1638.46 488.89"><defs><style>.cls-1{fill:#00bf1b;}.cls-2{fill:#504f4d;}</style></defs><g id="Layer_2" data-name="Layer 2"><g id="Layer_1-2" data-name="Layer 1"><path class="cls-1" d="M1.91,488.89H0a14.11,14.11,0,0,0,.74-1.75Q17,427.83,33.27,368.53a12.09,12.09,0,0,0-1.14-9.84c-28-51.78-36.8-106.81-25-164.41C33.6,64.89,156.39-18.6,286.52,3.56,420.1,26.3,509.62,157.84,482,290.77,449.08,449,275.28,531.48,132,457a10.23,10.23,0,0,0-6.65-.74Q85.13,466.55,45.05,477.2C30.65,481,16.29,485,1.91,488.89ZM58.5,431c2.19-.46,3.42-.68,4.63-1,22.13-5.79,44.27-11.53,66.36-17.46a11.47,11.47,0,0,1,9.76,1.4c43.91,26.3,91.09,35.37,141.6,26.36,91.77-16.37,161.58-96.6,164.9-189.65q2.28-64-32.26-118.16C371.36,66.66,290.16,30.29,213.71,43.11c-38.92,6.53-73.75,22-102.77,48.82C56.06,142.61,34.6,205.26,46.66,279.07c4.31,26.39,14.53,50.63,29.08,73a11.43,11.43,0,0,1,1.55,10.62c-2.63,8.5-4.83,17.12-7.18,25.71C66.31,402.32,62.53,416.24,58.5,431Z"/><path class="cls-2" d="M343.5,323.41c-20.34,25.4-46.5,41.31-78.67,46.9-6.76,1.17-13.71,1.53-20.56,2.26-66.42-.36-123.74-53.95-128-120.08s46-126.94,111.63-134.86c45.21-5.46,82.52,10.16,112.56,43.86,8.59,9.65,8.63,19.48.73,26.26s-17.12,5-25.93-4.68c-24.85-27.35-55.35-39.44-91.8-30.77-36.62,8.72-60.67,32.24-70.79,68.53-11.55,41.46,8.57,85.74,47.32,106.82,37.54,20.41,83.81,12.42,112.92-19.48,1.86-2,3.55-4.26,5.46-6.23,7.12-7.37,16.66-8,23.71-1.74C348.67,306.06,349.53,315.84,343.5,323.41Z"/><path class="cls-2" d="M298.29,231.3Q268.74,261.51,238.46,291c-7,6.86-15.84,6.46-23.05-.4q-15-14.28-29.31-29.28c-7.12-7.48-6.85-17.06-.06-23.67s16.06-6.61,23.69.64c5.74,5.46,11,11.43,17.9,18.59,6.63-7.27,12.2-13.73,18.15-19.83,9.45-9.7,18.94-19.34,28.77-28.66,7.43-7.06,17.26-6.88,23.76-.27A16.15,16.15,0,0,1,298.29,231.3Z"/><path class="cls-1" d="M371.83,244.23a16.56,16.56,0,0,1-33.1.56c-.27-8.92,7.76-17.08,16.77-17.1C364.26,227.69,371.78,235.32,371.83,244.23Z"/><path class="cls-1" d="M621,40.5l29.91,137.75,6.51,38.33L664,179,689.54,40.5h49.94l26.91,137.73,6.89,38.35,7-36.86L810.47,40.5h48.19L794.94,281H749.62L722.27,140.37l-8-46.51-8,46.51L678.93,281H635L570.75,40.5Z"/><path class="cls-1" d="M994.49,40.5H1048L1128.18,281h-51.32l-14.95-49.44H978.5L963.14,281h-49.5Zm-3.12,149.65h58l-28.61-94.66Z"/><path class="cls-1" d="M1351.32,66.12q10.4,15.34,10.39,36.72,0,22-10.49,35.41-5.85,7.51-17.27,13.71,17.34,6.69,26.16,21.21t8.83,35.25q0,21.39-10.09,38.35a64.88,64.88,0,0,1-16,18.93,60.72,60.72,0,0,1-25.59,12.08,147.81,147.81,0,0,1-32,3.26h-102V40.5h109.46Q1334.05,41.15,1351.32,66.12Zm-123,16.16v53h55.05q14.76,0,24-5.95t9.2-21.14q0-16.8-12.17-22.19-10.48-3.75-26.76-3.75Zm0,92.85v64.14h55q14.73,0,22.93-4.25,14.9-7.83,14.89-30,0-18.76-14.43-25.79-8.06-3.92-22.64-4.08Z"/><path class="cls-1" d="M1504.77,40.5h53.55L1638.46,281h-51.32l-15-49.44h-83.41L1473.42,281h-49.5Zm-3.12,149.65h58l-28.61-94.66Z"/><path class="cls-2" d="M720.69,404.56a27.48,27.48,0,0,0,4,14.8,29,29,0,0,0,10.78,10.24,30,30,0,0,0,14.8,3.76,34.12,34.12,0,0,0,17-4A64.28,64.28,0,0,0,779.1,421l9,11.84a58.69,58.69,0,0,1-16.38,10.71,53.09,53.09,0,0,1-22.51,4.64,45.29,45.29,0,0,1-22.75-5.76,42.48,42.48,0,0,1-16-15.67,43.49,43.49,0,0,1,16-60.16,45.38,45.38,0,0,1,22.75-5.75,56.4,56.4,0,0,1,23.06,4.56q10.32,4.55,15.83,12.07l-9,12.16a37.82,37.82,0,0,0-8.1-7,48.48,48.48,0,0,0-10.24-5,31.76,31.76,0,0,0-10.63-1.92,30.55,30.55,0,0,0-15.19,3.76,27.47,27.47,0,0,0-10.47,10.24A28.84,28.84,0,0,0,720.69,404.56Z"/><path class="cls-2" d="M904.9,404.56a41.91,41.91,0,0,1-6.14,22.64A43,43,0,0,1,882,442.63a55.11,55.11,0,0,1-48.41,0,42.73,42.73,0,0,1-16.85-15.43,44.81,44.81,0,0,1,0-45.28,42.83,42.83,0,0,1,16.85-15.44,55.2,55.2,0,0,1,48.41,0,43.08,43.08,0,0,1,16.77,15.44A41.91,41.91,0,0,1,904.9,404.56Zm-16.53,0a26.94,26.94,0,0,0-3.86-15,27.46,27.46,0,0,0-11-10.08,35.88,35.88,0,0,0-31.33,0,27.94,27.94,0,0,0-11.1,10.08,26.42,26.42,0,0,0-3.94,15,26.11,26.11,0,0,0,3.94,14.8,28.58,28.58,0,0,0,11.1,10.16,35.18,35.18,0,0,0,31.33,0,28.08,28.08,0,0,0,11-10.16A26.62,26.62,0,0,0,888.37,404.56Z"/><path class="cls-2" d="M983.93,360.89q12,0,19.13,4.79a27.51,27.51,0,0,1,10.39,12.72,46.51,46.51,0,0,1,3.23,17.68v50.55h-16.22V397.84q0-9.6-5.35-15.84t-15.9-5.92a26.11,26.11,0,0,0-13.15,3.28,25.74,25.74,0,0,0-9,8.4,19.21,19.21,0,0,0-3.31,10.56v48.31H937.49v-84H953.7v14.07a44.74,44.74,0,0,1,12.6-11A33.24,33.24,0,0,1,983.93,360.89Z"/><path class="cls-2" d="M1104.06,360.89q12,0,19.13,4.79a27.57,27.57,0,0,1,10.39,12.72,46.51,46.51,0,0,1,3.22,17.68v50.55h-16.21V397.84q0-9.6-5.36-15.84t-15.9-5.92a26.1,26.1,0,0,0-13.14,3.28,25.77,25.77,0,0,0-9.06,8.4,19.28,19.28,0,0,0-3.3,10.56v48.31h-16.22v-84h16.22v14.07a44.69,44.69,0,0,1,12.59-11A33.3,33.3,0,0,1,1104.06,360.89Z"/><path class="cls-2" d="M1254.57,435.6h-.16a53.65,53.65,0,0,1-9.84,6.15,62.11,62.11,0,0,1-13,4.72,59.49,59.49,0,0,1-14.48,1.76q-14.34,0-25.35-5.52a42.12,42.12,0,0,1-17.16-15.19,40.16,40.16,0,0,1-6.14-22q0-14.07,6.45-24.08a42.88,42.88,0,0,1,17.24-15.36,52.2,52.2,0,0,1,23.54-5.35,44.29,44.29,0,0,1,21.41,5.19,40.8,40.8,0,0,1,15.35,14.32,39.1,39.1,0,0,1,5.75,21.28l-.16,7.68h-73.21A25.68,25.68,0,0,0,1196,426.64q9.29,6.39,23.3,6.4,10.23,0,16.77-3.28a83.2,83.2,0,0,0,10.78-6.32Zm-38.89-59.68a40.07,40.07,0,0,0-19.52,4.56q-8.36,4.56-10.87,15.6h56.37v-1.76a16.89,16.89,0,0,0-4.41-9.6,25.67,25.67,0,0,0-9.53-6.48A32,32,0,0,0,1215.68,375.92Z"/><path class="cls-2" d="M1299.12,404.56a27.48,27.48,0,0,0,4,14.8,29,29,0,0,0,10.78,10.24,30,30,0,0,0,14.8,3.76,34.18,34.18,0,0,0,17-4,64.53,64.53,0,0,0,11.8-8.32l9,11.84a58.69,58.69,0,0,1-16.38,10.71,53.06,53.06,0,0,1-22.51,4.64,45.29,45.29,0,0,1-22.75-5.76,42.48,42.48,0,0,1-16-15.67,45.49,45.49,0,0,1,0-44.56,42.67,42.67,0,0,1,16-15.6,45.38,45.38,0,0,1,22.75-5.75,56.48,56.48,0,0,1,23.07,4.56q10.3,4.55,15.82,12.07l-9,12.16a37.58,37.58,0,0,0-8.1-7,48.48,48.48,0,0,0-10.24-5,31.76,31.76,0,0,0-10.63-1.92,30.55,30.55,0,0,0-15.19,3.76,27.47,27.47,0,0,0-10.47,10.24A28.84,28.84,0,0,0,1299.12,404.56Z"/><path class="cls-2" d="M1424.76,446.63h-16.22v-68H1387.6v-16h20.94V339.29h16.22v23.36H1449v16h-24.25Z"/><path class="cls-2" d="M1488.52,448.39c-4.4,0-7.69-1.09-9.84-3.28a11.87,11.87,0,0,1-3.22-8.71,12.26,12.26,0,0,1,3.22-8.32c2.15-2.46,5.44-3.68,9.84-3.68s7.69,1.09,9.84,3.28a11.89,11.89,0,0,1,3.23,8.72,12.37,12.37,0,0,1-3.23,8.23Q1495.14,448.4,1488.52,448.39Z"/></g></g></svg>